<svg xmlns="http://www.w3.org/2000/svg" viewBox="0 3.5 64.1500015258789 51.150001525878906" data-asc="0.87" width="64.1500015258789" height="51.150001525878906"><defs/><g><g><g transform="translate(0, 0)"><path d="M1.30 49.35Q0.75 49.35 0.38 49.02Q0 48.70 0 48.15Q0 47.45 0.68 46.50Q1.35 45.55 2.90 44.40Q3.15 43.75 3.28 43.20Q3.40 42.65 3.50 42Q3.85 39.80 4.75 37.52Q5.65 35.25 6.55 33.25Q5.60 33.05 4.68 31.75Q3.75 30.45 3.75 29Q3.75 28.65 3.90 27.82Q4.05 27 4.40 27Q4.85 27 4.85 27.75Q4.85 28.50 4.85 28.80Q4.85 29.85 5.45 30.90Q6.05 31.95 6.90 32.40Q7.75 30.55 9.05 28.02Q10.35 25.50 12.00 22.67Q13.65 19.85 15.60 17.15Q17.55 14.45 19.73 12.25Q21.90 10.05 24.25 8.75Q26.60 7.45 29.05 7.45Q31.05 7.45 31.95 8.48Q32.85 9.50 32.85 11.25Q32.85 13.10 31.95 15.50Q31.05 17.90 29.43 20.47Q27.80 23.05 25.65 25.47Q23.50 27.90 20.95 29.88Q18.40 31.85 15.65 33Q12.90 34.15 10.15 34.15Q9.60 34.15 9.05 34.08Q8.50 34 8 33.80Q7.00 36.15 6.15 38.50Q5.30 40.85 4.80 43.40Q8.65 41.05 13.15 40Q17.65 38.95 22.15 38.95Q23.35 38.95 24.90 39.38Q26.45 39.80 27.58 40.70Q28.70 41.60 28.70 43.15Q28.70 44.40 28.45 44.40Q28.20 44.40 27.85 43.50Q27.15 41.70 25.65 41.23Q24.15 40.75 22.35 40.75Q19.30 40.75 17.13 41.02Q14.95 41.30 13.13 41.85Q11.30 42.40 9.35 43.20Q7.40 44 4.75 45.05Q4.35 47.35 3.28 48.35Q2.20 49.35 1.30 49.35M9.90 33.25Q12.55 33.25 15.18 32.08Q17.80 30.90 20.23 28.92Q22.65 26.95 24.70 24.55Q26.75 22.15 28.27 19.67Q29.80 17.20 30.65 14.97Q31.50 12.75 31.50 11.20Q31.50 10.05 30.98 9.40Q30.45 8.75 29.35 8.75Q27.50 8.75 25.48 10.05Q23.45 11.35 21.35 13.55Q19.25 15.75 17.27 18.40Q15.30 21.05 13.58 23.77Q11.85 26.50 10.50 28.92Q9.15 31.35 8.40 33Q8.65 33.15 9.15 33.20Q9.65 33.25 9.90 33.25ZM45.05 54.65Q42.60 54.65 40.38 52.50Q38.15 50.35 36.75 46.27Q35.35 42.20 35.35 36.45Q35.35 35.75 35.38 35Q35.40 34.25 35.45 33.45Q34.95 33.50 34.48 33.50Q34 33.50 33.60 33.50Q30.70 33.50 29.38 32.75Q28.05 32 28.05 30.80Q28.05 29.60 29.22 28.15Q30.40 26.70 32.50 25.20Q34.60 23.70 37.35 22.50Q38.50 18.35 40.35 13.75Q42.20 9.15 44.95 4.15Q45.30 3.50 46 3.50Q46.45 3.50 46.80 3.80Q47.15 4.10 47.15 4.60Q47.15 4.85 47 5.25Q46.60 6.05 46.20 6.88Q45.80 7.70 45.40 8.50Q46.15 8.35 46.55 8.35Q46.95 8.35 47.50 8.30Q48.05 8.25 49.20 8.10Q50.80 7.85 52.23 7.70Q53.65 7.55 54.90 7.55Q59.65 7.55 61.90 9.20Q64.15 10.85 64.15 13.40Q64.15 16.45 61.20 20.10Q58.75 23.10 55.08 25.90Q51.40 28.70 46.83 30.67Q42.25 32.65 37.10 33.30Q36.90 34.75 36.80 36.10Q36.70 37.45 36.70 38.65Q36.70 43 37.73 45.83Q38.75 48.65 40.27 50.25Q41.80 51.85 43.33 52.50Q44.85 53.15 45.80 53.15Q46.55 53.15 46.80 52.90Q47 52.65 47.25 52.65Q47.80 52.65 47.80 53.40Q47.80 54 47.25 54.20Q46.20 54.65 45.05 54.65M37.25 32.40Q42.50 31.35 46.77 29.20Q51.05 27.05 54.35 24.25Q57.65 21.45 59.90 18.40Q61.20 16.70 61.75 15.32Q62.30 13.95 62.30 12.90Q62.30 11.20 61.13 10.17Q59.95 9.15 58.05 8.70Q56.15 8.25 53.95 8.25Q51.65 8.25 49.40 8.65Q47.15 9.05 45.40 9.70Q45.05 9.85 44.80 9.75Q43.35 12.95 42.17 15.88Q41 18.80 40.10 21.45Q42.25 20.75 44.60 20.25Q46.95 19.75 49.45 19.65L49.65 19.65Q50.15 19.65 50.15 19.85Q50.15 20 49.67 20.20Q49.20 20.40 48.10 20.45Q45.80 20.55 43.75 21.02Q41.70 21.50 39.85 22.20Q38.90 25.10 38.27 27.65Q37.65 30.20 37.25 32.40M33.80 32.80Q34.20 32.80 34.63 32.77Q35.05 32.75 35.50 32.70Q35.70 30.55 36.10 28.23Q36.50 25.90 37.15 23.40Q33.95 25.05 32.05 27.07Q30.15 29.10 30.15 30.65Q30.15 31.60 31.05 32.20Q31.95 32.80 33.80 32.80Z"/></g></g></g></svg>