<svg width="159" height="47" viewBox="0 0 159 47" fill="none" xmlns="http://www.w3.org/2000/svg">
<g clip-path="url(#clip0_57_18)">
<path fill-rule="evenodd" clip-rule="evenodd" d="M39.9357 46.7617C40.4259 46.9239 40.941 47.0043 41.4589 46.9996C41.9937 46.997 42.5253 46.9199 43.0376 46.7707C43.5057 46.6348 43.9591 46.455 44.3914 46.234C44.5146 46.1717 44.6358 46.1056 44.7546 46.0357C45.2262 45.7582 45.6841 45.4104 46.1282 44.9924C46.5314 44.6097 46.9041 44.1978 47.2429 43.7603C48.1328 42.6216 48.8541 41.1296 49.4069 39.2841C49.7523 38.1308 49.9899 36.8164 50.1196 35.3408C50.1996 34.3996 50.2385 33.4554 50.2361 32.511C50.2355 31.9181 50.22 31.3253 50.1896 30.7331C50.147 29.9107 50.0816 29.0895 49.9934 28.2704C49.9125 27.5375 49.8451 26.798 49.7911 26.052C49.7372 25.306 49.7102 24.5534 49.7102 23.7943C49.7102 21.9881 49.872 20.2212 50.1956 18.4936C50.1963 18.4915 50.197 18.4894 50.1976 18.4873C50.2168 18.4274 50.2288 18.3323 50.2336 18.2022C50.2353 18.1554 50.2361 18.1085 50.2361 18.0617C50.2361 17.7737 50.1619 17.4596 50.0136 17.1193C49.994 17.074 49.9727 17.0293 49.9497 16.9854C49.878 16.8496 49.8021 16.7505 49.722 16.6882C49.6623 16.6384 49.5867 16.6104 49.508 16.6089C49.2923 16.6089 49.0901 16.7987 48.9013 17.1782C48.7538 17.4748 48.5981 18.0789 48.4341 18.9907C48.3843 19.2694 48.3378 19.5488 48.2946 19.8286C48.2794 19.927 48.2633 20.0253 48.2464 20.1235C48.162 20.6137 48.0365 21.2418 47.8699 22.0078C47.6676 22.937 47.425 23.9317 47.1418 24.9919C47.0718 25.2541 46.9984 25.5155 46.9218 25.776C46.7023 26.5253 46.4519 27.2658 46.1711 27.9956C46.1071 28.1613 46.0402 28.326 45.9705 28.4895C45.6622 29.2115 45.3314 29.819 44.9779 30.3122C44.5645 30.8891 44.1386 31.1776 43.7001 31.1776C43.6811 31.1776 43.6621 31.1771 43.6431 31.176C43.4846 31.1667 43.3328 31.1107 43.2079 31.0154C43.0442 30.8913 42.9129 30.6962 42.8139 30.43C42.7612 30.2868 42.718 30.1404 42.6845 29.9918C42.6384 29.7902 42.6043 29.5708 42.5821 29.3333C42.5607 29.0974 42.5504 28.8607 42.551 28.6238C42.551 27.8385 42.6386 26.9747 42.8139 26.0324C42.8248 25.9735 42.836 25.9148 42.8475 25.8561C43.013 25.0024 43.2452 24.1622 43.542 23.3427C43.8521 22.492 44.2026 21.7983 44.5936 21.2617C44.6802 21.1415 44.7758 21.0276 44.8796 20.9209C44.9961 20.8026 45.1142 20.7068 45.2339 20.6335C45.4102 20.5207 45.6161 20.4594 45.8273 20.4568C45.8629 20.4567 45.8985 20.4593 45.9336 20.4647C46.01 20.4762 46.0756 20.5012 46.1306 20.5397C46.1925 20.5841 46.2414 20.6435 46.2722 20.712C46.3531 20.8822 46.4407 21.0523 46.5351 21.2225C46.591 21.3272 46.681 21.411 46.7911 21.4608C46.8574 21.49 46.928 21.509 47.0003 21.5169C47.0698 21.5188 47.1389 21.5062 47.203 21.48C47.2672 21.4538 47.3248 21.4146 47.372 21.365C47.4177 21.3166 47.456 21.2619 47.4856 21.2028C47.5482 21.0793 47.5922 20.9478 47.6163 20.8122C47.6375 20.6948 47.648 20.5759 47.6474 20.4568C47.6474 20.3019 47.6294 20.1476 47.5936 19.9966C47.541 19.7797 47.4569 19.5711 47.3441 19.377C47.2831 19.2638 47.1995 19.1635 47.0983 19.0819C46.9971 19.0003 46.8801 18.939 46.7543 18.9015C46.6242 18.8639 46.4889 18.8455 46.3531 18.847C45.7059 18.847 45.0655 19.2069 44.4318 19.9267C44.3867 19.9779 44.3422 20.0296 44.2983 20.0818C43.9909 20.4488 43.6982 20.8601 43.4202 21.3155C43.1606 21.7433 42.9245 22.1841 42.7128 22.636C42.2005 23.7223 41.796 24.8413 41.4994 25.9931C41.3141 26.7129 41.1867 27.3714 41.1171 27.9685C41.0768 28.3033 41.0559 28.6401 41.0544 28.9772C41.0544 29.0231 41.0546 29.0691 41.0552 29.115C41.065 29.7755 41.1449 30.3325 41.2951 30.7861C41.3743 31.036 41.4908 31.2732 41.6409 31.4901C41.7372 31.6275 41.8478 31.7549 41.971 31.8702C42.1161 32.0114 42.2884 32.1233 42.4782 32.1995C42.668 32.2758 42.8714 32.315 43.0768 32.3147C43.5907 32.3209 44.0907 32.1524 44.4901 31.8384C44.7163 31.6594 44.9147 31.4495 45.079 31.2153C45.364 30.8151 45.6231 30.3981 45.8548 29.9667C46.0971 29.5163 46.3174 29.0551 46.5149 28.5846C46.9463 27.5637 47.3171 26.4839 47.6272 25.3452C47.8211 24.6335 47.9807 23.9858 48.1061 23.402C48.1766 23.0761 48.2394 22.7487 48.2946 22.42C48.3024 22.965 48.3206 23.5099 48.3492 24.0542C48.4283 25.5173 48.572 26.9764 48.78 28.4275C48.7812 28.4355 48.7824 28.4435 48.7836 28.4515C49.1047 30.4838 49.2653 32.3343 49.2653 34.0031C49.2692 34.9383 49.1967 35.8723 49.0485 36.7963C48.8792 37.8682 48.5715 38.9151 48.1328 39.9124C47.6843 40.8982 47.0818 41.811 46.3466 42.6185C45.7124 43.3182 45.0102 43.957 44.2498 44.5259C43.5217 45.0757 42.8476 45.4748 42.2274 45.7235C42.0809 45.7825 41.9322 45.8365 41.7817 45.8853C41.5719 45.9531 41.3726 46.0045 41.1839 46.0396C40.9947 46.0761 40.8024 46.0952 40.6095 46.0965C40.4645 46.0974 40.3197 46.086 40.1767 46.0624C39.3866 45.9265 38.9916 45.3882 38.9916 44.4474C38.9918 44.3317 38.999 44.216 39.013 44.1011C39.0403 43.8747 39.0937 43.6374 39.1732 43.3892C39.2519 43.1473 39.3466 42.9106 39.4568 42.6805C39.5451 42.4941 39.6376 42.3095 39.7342 42.1269C39.9945 41.6369 40.2799 41.1599 40.5893 40.6977C40.6036 40.6762 40.6178 40.6547 40.6322 40.6333C41.0614 39.9927 41.4719 39.4318 41.8634 38.9504C41.9339 38.8624 42.0054 38.7751 42.0778 38.6885C42.7503 37.879 43.5126 37.1439 44.3509 36.4964C44.4113 36.4499 44.4721 36.404 44.5333 36.3585C44.9653 36.0381 45.4396 35.7248 45.9563 35.4185C46.5066 35.0938 47.0708 34.7919 47.6474 34.5135C47.9012 34.3729 48.0696 34.2381 48.1526 34.1091C48.1906 34.0544 48.2118 33.9904 48.2137 33.9245C48.2137 33.921 48.2135 33.9175 48.2133 33.9139C48.2087 33.8425 48.1549 33.8067 48.0519 33.8067C48.0308 33.807 48.0099 33.8091 47.9892 33.813C47.9126 33.8269 47.8122 33.8641 47.6879 33.9245C47.6073 33.9636 47.5266 34.0026 47.446 34.0415C46.9007 34.3056 46.3544 34.5677 45.807 34.8276C45.2003 35.1156 44.6273 35.4428 44.088 35.8092C42.5308 36.7712 41.2696 37.7107 40.3045 38.6276C39.838 39.0643 39.4121 39.5402 39.0321 40.0498C39.0127 40.0763 38.9934 40.1029 38.9742 40.1295C38.0151 41.4574 37.5355 42.6219 37.5355 43.6229C37.5354 43.7169 37.5388 43.811 37.5456 43.9048C37.5671 44.3247 37.6801 44.7353 37.8771 45.1097C38.074 45.4841 38.3505 45.8138 38.6882 46.0769C39.0587 46.3754 39.4812 46.6073 39.9357 46.7617ZM0.677499 35.9533C0.798755 35.9891 0.924918 36.0067 1.05164 36.0055C1.06594 36.0055 1.08023 36.0052 1.09452 36.0048C1.56829 35.9898 2.08656 35.7283 2.64933 35.2203C2.88617 35.0013 3.08479 34.7464 3.23744 34.4656C3.37738 34.2153 3.499 33.9306 3.60227 33.6112C3.70443 33.2892 3.78469 32.961 3.84253 32.6288C4.73589 32.2854 5.55536 31.9673 6.30095 31.6747C6.72233 31.5096 7.14326 31.3433 7.56372 31.176C7.85536 31.0599 8.1485 30.9473 8.44306 30.8383C9.1588 30.5725 9.88409 30.3315 10.6175 30.1159C11.0288 29.996 11.4445 29.8908 11.8637 29.8006C12.5212 29.6597 13.1852 29.5487 13.8533 29.468C14.1406 29.4329 14.4285 29.4031 14.7169 29.3785C15.6998 29.2942 16.8209 29.2521 18.0801 29.2521C19.0509 29.2521 19.9407 29.3764 20.7497 29.6251C21.2954 29.7937 21.7669 30.1358 22.0881 30.5961C22.2687 30.8495 22.4169 31.1234 22.5294 31.4116C22.7181 31.8828 22.8799 32.1184 23.0148 32.1184C23.0346 32.1182 23.0537 32.1111 23.0685 32.0983C23.1675 32.0182 23.217 31.6977 23.217 31.1368C23.2171 31.0499 23.2134 30.963 23.2061 30.8764C23.1863 30.5531 23.0959 30.2375 22.9409 29.9507C22.7859 29.6639 22.5698 29.4123 22.3069 29.2128C22.0576 29.0195 21.7912 28.8479 21.5109 28.7C21.0775 28.4733 20.6184 28.2962 20.143 28.1723C20.0242 28.1406 19.905 28.1106 19.7854 28.0824C19.4478 28.0031 19.1266 27.9431 18.8219 27.9025C18.5226 27.8613 18.2207 27.8399 17.9183 27.8385C15.4915 27.8385 13.0646 28.1134 10.6378 28.6631C8.21089 29.2128 5.9593 30.1028 3.88298 31.3331C4.15263 29.9981 4.51666 28.7154 4.97507 27.4852C5.43348 26.2549 5.93233 25.0246 6.47164 23.7943C6.74129 23.899 7.02442 23.971 7.32104 24.0102C7.61765 24.0495 7.91427 24.0691 8.21089 24.0691C8.6525 24.069 9.09368 24.0424 9.53191 23.9894C10.6085 23.8549 11.661 23.5779 12.6601 23.1661C14.1432 22.564 15.5724 21.746 16.9476 20.712C18.3228 19.6781 19.5902 18.5263 20.7497 17.2567C20.84 17.1578 20.9296 17.0583 21.0187 16.9583C22.0395 15.8186 22.9704 14.6058 23.8035 13.3303C24.1734 12.7631 24.5197 12.1816 24.8414 11.5873C25.2218 10.8868 25.5574 10.1641 25.8461 9.42348C26.1268 8.69709 26.3263 8.01886 26.4447 7.38879C26.5281 6.95919 26.5714 6.52316 26.5742 6.086C26.5742 6.03233 26.5734 5.97866 26.5717 5.92501C26.5612 5.60095 26.5189 5.30189 26.4447 5.02782C26.3386 4.6137 26.1336 4.22966 25.8461 3.90682C25.6532 3.69588 25.4178 3.52563 25.1544 3.40659C24.7152 3.20346 24.1637 3.1019 23.5001 3.1019C22.9631 3.10191 22.4277 3.15839 21.9032 3.27034C21.1026 3.44529 20.3325 3.73244 19.6171 4.12277C19.0484 4.4295 18.5016 4.7732 17.9806 5.1515C17.2624 5.67455 16.5858 6.24944 15.9566 6.87129C15.7354 7.08857 15.5176 7.30914 15.3034 7.53289C14.342 8.5403 13.4458 9.60443 12.6197 10.7192C11.568 12.1327 10.5973 13.579 9.70745 15.0579C8.8176 16.5369 8.02213 17.9373 7.32104 19.2592C7.11157 19.6539 6.90434 20.0497 6.69936 20.4466C6.50386 20.8254 6.32036 21.1867 6.14886 21.5307C5.95578 21.9169 5.76674 22.305 5.58179 22.6949C5.55176 22.6794 5.5221 22.6633 5.4928 22.6466C5.25335 22.5102 5.03318 22.3295 4.83229 22.1043C4.6718 21.9224 4.52997 21.7256 4.4088 21.5169C4.31552 21.3594 4.23349 21.1958 4.16328 21.0273C4.00717 20.6594 3.92573 20.2657 3.92343 19.8678V19.0433C3.92343 18.8645 3.89835 18.7264 3.8482 18.629C3.82375 18.5751 3.78311 18.5296 3.73159 18.4984C3.68007 18.4672 3.62006 18.4519 3.5594 18.4543C3.53946 18.4543 3.5196 18.4568 3.50035 18.4618C3.3755 18.4945 3.27748 18.6345 3.20629 18.8819C3.18568 18.9545 3.16854 19.028 3.15492 19.1022C3.15357 19.1094 3.15222 19.1166 3.15088 19.1238C3.07268 19.5444 3.03358 19.8448 3.03358 20.0249C3.03315 20.3842 3.09047 20.7413 3.20346 21.0835C3.33634 21.4773 3.53147 21.8488 3.78186 22.1844C3.80066 22.2101 3.81967 22.2356 3.83889 22.261C4.12418 22.6372 4.41163 22.9195 4.70124 23.1079C4.88168 23.2292 5.08452 23.3156 5.29865 23.3624C4.81328 24.4094 4.32791 25.5285 3.84253 26.7195C3.35716 27.9105 3.0201 29.0819 2.83134 30.2337C2.77741 30.574 2.71674 30.8881 2.64933 31.176C2.61311 31.3293 2.5706 31.4811 2.52192 31.6311C2.46861 31.7953 2.40993 31.9578 2.34597 32.1184C2.31054 32.1439 2.27521 32.1695 2.23999 32.1953C1.73305 32.5665 1.31738 32.9175 0.992992 33.2484C0.831481 33.4109 0.682119 33.5843 0.546044 33.7675C0.315762 34.0821 0.158285 34.3707 0.0736149 34.6333C0.0267872 34.7721 0.00196568 34.9171 1.82014e-09 35.0632C-1.98191e-06 35.0983 0.00161755 35.1334 0.00485373 35.1684C0.012215 35.2798 0.0424095 35.3887 0.0936674 35.4886C0.144925 35.5885 0.216215 35.6775 0.303358 35.7503C0.412191 35.8425 0.539613 35.9116 0.677499 35.9533ZM97.7419 38.4792C97.7706 38.5061 97.7994 38.5328 97.8285 38.5593C99.0025 39.6315 100.234 40.1676 101.524 40.1676C102.144 40.1676 102.737 40.0498 103.303 39.8142C103.332 39.8042 103.36 39.7928 103.387 39.78C103.549 39.7044 103.656 39.5904 103.709 39.4381C103.736 39.3567 103.75 39.2715 103.748 39.186C103.748 38.9004 103.67 38.7186 103.513 38.6406C103.448 38.6101 103.376 38.5951 103.303 38.597C103.211 38.597 103.124 38.6279 103.045 38.6897C103.006 38.7203 102.97 38.7551 102.939 38.7933C102.836 38.8936 102.654 38.9555 102.393 38.9791C102.305 38.9865 102.218 38.99 102.13 38.9897C102.092 38.9897 102.053 38.9887 102.014 38.9869C101.677 38.9709 101.279 38.8877 100.82 38.7372C100.586 38.6599 100.355 38.5738 100.128 38.4792C99.9846 38.4196 99.8436 38.354 99.7057 38.2825C99.3454 38.0961 98.9851 37.862 98.6249 37.5801C98.2844 37.3115 97.9625 37.0217 97.661 36.7123C96.8386 35.8747 96.151 34.7164 95.5982 33.2374C95.4364 32.8 95.3029 32.3532 95.1986 31.8997C95.0551 31.2861 94.9477 30.6207 94.8762 29.9035C94.8024 29.1387 94.7667 28.371 94.769 27.6029C94.769 26.9747 94.796 26.3072 94.8499 25.6005C94.9038 24.8937 94.9847 24.1608 95.0926 23.4016C97.87 23.0614 100.492 22.3742 102.96 21.3403C103.342 21.1799 103.722 21.013 104.098 20.8396C106.055 19.9464 107.91 18.8575 109.634 17.5905C110.468 16.9756 111.273 16.3235 112.045 15.6363C112.955 14.8291 113.805 13.9601 114.588 13.0358C114.98 12.5696 115.341 12.0808 115.671 11.572C116.053 10.9776 116.351 10.3997 116.565 9.83851C116.827 9.17959 116.966 8.48058 116.975 7.77437C116.987 6.9674 116.732 6.17801 116.246 5.52295C115.941 5.12036 115.573 4.76707 115.155 4.47615C115.048 4.40008 114.937 4.32842 114.824 4.26138C113.983 3.76272 112.873 3.43656 111.493 3.28291C110.829 3.21193 110.161 3.17771 109.492 3.18042C109.227 3.18058 108.962 3.18634 108.697 3.1977C108.24 3.21763 107.783 3.25115 107.328 3.29822C107.033 3.32843 106.738 3.36155 106.443 3.39756C105.922 3.4616 105.401 3.5332 104.881 3.61233C104.261 3.69086 103.802 3.74322 103.506 3.76939C103.32 3.78588 103.151 3.79714 102.997 3.80316C102.91 3.80671 102.824 3.80854 102.737 3.80866C102.696 3.80869 102.655 3.80987 102.614 3.81219C102.471 3.82031 102.297 3.84125 102.092 3.87501C101.997 3.89081 101.902 3.90796 101.807 3.92645C102.023 3.50763 102.238 3.08226 102.454 2.65035C102.67 2.21844 102.886 1.79308 103.101 1.37426C103.182 1.16485 103.223 0.994701 103.223 0.863819C103.223 0.841685 103.222 0.819555 103.221 0.797462C103.217 0.689962 103.19 0.584449 103.141 0.48769C103.093 0.39093 103.024 0.30506 102.939 0.235587C102.751 0.078529 102.535 0 102.292 0C102.279 3.43113e-05 102.265 0.000296113 102.251 0.00078529C102.019 0.00837643 101.823 0.0831099 101.665 0.224986C101.575 0.30751 101.5 0.403981 101.443 0.510439C100.895 1.47643 100.368 2.45342 99.8614 3.44075C99.0862 4.94908 98.3724 6.48642 97.7217 8.04922C97.3491 8.94705 96.9947 9.85188 96.6587 10.7632C96.1523 12.1324 95.6974 13.5191 95.2948 14.9205C94.7325 15.158 94.1795 15.4156 93.6369 15.6928C92.8514 16.0923 92.0945 16.5426 91.3714 17.0408C91.1275 17.2096 90.8875 17.3839 90.6518 17.5634C90.273 17.8527 89.9284 18.1401 89.618 18.4257C89.2988 18.7169 88.9995 19.0282 88.7221 19.3574C88.5566 19.5539 88.4045 19.7606 88.2666 19.9762C88.1224 20.2039 88.0097 20.4254 87.9285 20.6406C87.8281 20.8955 87.775 21.1656 87.7716 21.4384C87.7716 21.89 87.9561 22.2806 88.3253 22.6105C88.4833 22.749 88.6572 22.8695 88.8434 22.9697C88.9621 23.0344 89.0851 23.0913 89.2115 23.1401C89.6944 23.3286 90.3152 23.4535 91.0737 23.5147C91.4688 23.5452 91.865 23.5599 92.2613 23.5587H92.9691C92.977 23.5587 92.985 23.5587 92.9929 23.5587C93.2484 23.5576 93.5037 23.5445 93.7578 23.5194C93.7545 23.5715 93.7513 23.6236 93.7481 23.6757C93.7264 24.0291 93.7095 24.3828 93.6971 24.7366C93.6954 24.7855 93.6938 24.8343 93.6923 24.8831C93.6822 25.2137 93.677 25.5445 93.6769 25.8753C93.6769 27.5687 93.7964 29.1233 94.0353 30.5391C94.2046 31.5757 94.4636 32.5965 94.8095 33.5908C95.5645 35.7242 96.542 37.3536 97.7419 38.4792ZM60.1458 29.0557V29.0165H60.1862C60.2401 28.7024 60.3413 28.4013 60.4896 28.1134C60.6379 27.8254 60.7929 27.5506 60.9547 27.2888C61.6608 25.9281 62.5112 24.6425 63.492 23.4531C63.6802 23.2232 63.8727 22.9966 64.0692 22.7734C64.5145 22.2823 64.9932 21.8209 65.5022 21.3921C65.6682 21.2529 65.8378 21.1178 66.0107 20.9869C66.6848 20.4764 67.3859 20.2212 68.114 20.2212C68.2566 20.2201 68.3985 20.2406 68.5346 20.2821C68.6598 20.321 68.7774 20.3801 68.8825 20.4568C68.976 20.5273 69.0492 20.6201 69.0948 20.7262C69.163 20.8748 69.1999 21.0654 69.2052 21.2979C69.2058 21.3185 69.206 21.3392 69.2061 21.3599C69.2039 21.6023 69.174 21.8437 69.1167 22.0796C69.0643 22.3034 68.989 22.5386 68.8906 22.7852C68.8093 22.9879 68.7188 23.187 68.6196 23.382C68.2286 24.1542 67.7567 24.9526 67.2039 25.7771C66.6511 26.6017 66.1455 27.3804 65.6871 28.1134C65.0669 29.1343 64.5074 30.214 64.0085 31.3527C63.5097 32.4914 63.2602 33.6759 63.2602 34.9061C63.2608 35.1397 63.2733 35.3731 63.2979 35.6054C63.3145 35.7655 63.3357 35.9251 63.3614 36.0841C63.3905 36.2703 63.4341 36.4542 63.4916 36.6342C63.5502 36.8182 63.6286 36.9957 63.7254 37.1639C63.7768 37.2547 63.8421 37.3374 63.9191 37.4093C64.0688 37.5462 64.2681 37.6203 64.4737 37.6154C64.6585 37.6147 64.8407 37.5717 65.0052 37.4897C65.0376 37.4739 65.0695 37.4569 65.1006 37.4387C65.3028 37.3209 65.4714 37.2097 65.6062 37.105C65.648 37.0641 65.6907 37.0241 65.734 36.9848C65.9058 36.8301 66.0247 36.7524 66.0908 36.7516C66.091 36.7516 66.0913 36.7516 66.0916 36.7516C66.1078 36.7514 66.124 36.7533 66.1397 36.7575C66.1756 36.7674 66.1982 36.7902 66.2077 36.8258C66.2113 36.84 66.2131 36.8547 66.2129 36.8694C66.2122 36.9723 66.1837 37.0733 66.1304 37.1623C66.0968 37.2194 66.0566 37.2726 66.0107 37.3209C65.955 37.3807 65.896 37.4375 65.8339 37.4909C65.7697 37.5459 65.7057 37.5933 65.6418 37.6331C65.63 37.6404 65.6182 37.6476 65.6062 37.6547C65.4509 37.784 65.2544 37.9044 65.0169 38.0159C64.9644 38.0405 64.9114 38.064 64.8579 38.0866C64.6943 38.1566 64.5235 38.2094 64.3483 38.244C64.2164 38.2697 64.0823 38.2827 63.9478 38.2829C63.7407 38.2855 63.5347 38.2529 63.3391 38.1867C63.0134 38.072 62.7511 37.8554 62.5524 37.5369C62.3115 37.1462 62.1615 36.7092 62.1127 36.2564C62.0955 36.108 62.087 35.9586 62.0873 35.8092C62.0891 35.4427 62.1188 35.0768 62.1762 34.7145C62.2323 34.3499 62.3148 33.9664 62.4238 33.5641C62.4641 33.4152 62.507 33.2671 62.5524 33.1196C62.8625 32.1118 63.2468 31.0779 63.7052 30.0177C64.1636 28.9576 64.6422 27.9301 65.1411 26.9354C65.3632 26.4923 65.5852 26.049 65.8068 25.6056C66.0452 25.1294 66.2682 24.6827 66.4758 24.2655C66.8668 23.4802 67.1297 22.8781 67.2646 22.4593C67.4264 21.9881 67.5072 21.6347 67.5072 21.3992C67.5076 21.3529 67.5039 21.3066 67.4963 21.2609C67.4677 21.0971 67.3821 21.0124 67.2395 21.0069C67.2344 21.0067 67.2292 21.0065 67.2241 21.0065C67.0084 21.0065 66.6916 21.1701 66.2736 21.4973C65.8556 21.8245 65.4512 22.1844 65.0602 22.5771C64.6692 22.9697 64.3928 23.2577 64.231 23.4409C63.3681 24.3833 62.5928 25.4303 61.9052 26.5821C61.2214 27.7275 60.7976 28.7047 60.634 29.5136C60.633 29.518 60.6321 29.5225 60.6311 29.5269C60.6234 29.5647 60.6157 29.6025 60.6081 29.6404C60.5868 29.7459 60.5586 29.8866 60.5235 30.0625C60.5122 30.1195 60.5009 30.1766 60.4896 30.2337C60.427 30.5496 60.3121 30.7076 60.145 30.7076C60.1317 30.7076 60.1184 30.7067 60.1053 30.7048C59.98 30.6828 59.8634 30.6274 59.7688 30.5446C59.6968 30.4808 59.6384 30.3995 59.5937 30.3008C59.5808 30.2724 59.5693 30.2435 59.5593 30.214C59.4649 29.9392 59.4042 29.684 59.3773 29.4484C59.3771 29.3487 59.3735 29.249 59.3663 29.1496C59.3637 29.1117 59.3606 29.0739 59.357 29.0361C59.3435 28.8921 59.3368 28.7416 59.3368 28.5846C59.3368 27.4085 59.4615 26.0892 59.7109 24.6267C59.7338 24.4931 59.7573 24.3596 59.7817 24.2262C60.0783 22.6033 60.4626 20.9411 60.9345 19.2396C61.2176 18.2153 61.5257 17.1977 61.8587 16.1876C62.0468 15.6182 62.2443 15.0518 62.4513 14.4886C62.859 13.3806 63.2512 12.4147 63.6279 11.5909C63.7435 11.3376 63.8637 11.0862 63.9883 10.837C64.231 10.3658 64.5006 9.91429 64.7972 9.48238C64.8609 9.38876 64.9306 9.29918 65.006 9.2142C65.1753 9.02547 65.3446 8.90715 65.514 8.85925C65.5702 8.84304 65.6285 8.83471 65.6871 8.83451C65.8759 8.83451 66.0444 8.92613 66.1927 9.10937C66.3224 9.26956 66.3953 9.40974 66.4115 9.52989C66.4139 9.54668 66.4151 9.5636 66.4152 9.58054C66.4152 9.68524 66.2331 10.0975 65.8691 10.8174C65.5051 11.5372 65.0399 12.4796 64.4737 13.6444C63.9085 14.8069 63.3365 16.1325 62.7579 17.6211C62.7568 17.624 62.7557 17.6269 62.7546 17.6298C62.31 18.779 61.9128 19.9451 61.5639 21.1251C61.4361 21.5552 61.314 21.9869 61.1974 22.42C60.739 24.1215 60.4289 25.8491 60.2671 27.6029C60.267 27.6079 60.2667 27.6129 60.2663 27.6179C60.2636 27.6637 60.2504 27.7896 60.2267 27.9956C60.1997 28.2312 60.1795 28.4668 60.166 28.7024L60.1458 29.0557ZM127.208 31.922C126.858 31.922 126.547 31.7061 126.278 31.2742C126.197 31.1394 126.135 30.9954 126.091 30.8454C125.946 30.3727 125.873 29.6845 125.873 28.7809C125.873 27.8124 125.954 26.7457 126.116 25.5808C126.278 24.416 126.46 23.2577 126.662 22.1059C126.752 21.5933 126.842 21.0808 126.933 20.5683C127.018 20.0869 127.099 19.6325 127.176 19.2051C127.187 19.1446 127.197 19.0841 127.208 19.0237C127.33 18.3428 127.406 17.7996 127.436 17.3942C127.445 17.2766 127.45 17.1587 127.451 17.0408C127.451 16.5552 127.35 16.2305 127.149 16.0666C127.04 15.981 126.903 15.9365 126.763 15.9414C126.544 15.9437 126.328 15.9941 126.132 16.0886C125.987 16.1556 125.841 16.2456 125.695 16.3584C125.61 16.4248 125.527 16.4953 125.449 16.5696C125.004 16.9884 124.586 17.4989 124.195 18.1009C123.804 18.703 123.467 19.2854 123.184 19.8482C122.97 20.2725 122.814 20.6112 122.716 20.8644C122.687 20.937 122.661 21.0106 122.637 21.085C122.303 21.9821 122.049 22.9053 121.877 23.8445C121.86 23.9389 121.844 24.0334 121.829 24.128C121.667 25.1358 121.586 26.1763 121.586 27.2496C121.586 27.6787 121.604 28.1077 121.639 28.5355C121.642 28.5649 121.644 28.5944 121.647 28.6238C121.687 29.095 121.721 29.5793 121.748 30.0766C121.802 30.3384 121.727 30.659 121.525 31.0386C121.344 31.3794 121.135 31.5672 120.899 31.602C120.872 31.606 120.845 31.608 120.817 31.6079C120.66 31.6079 120.522 31.5264 120.402 31.3633C120.377 31.3283 120.353 31.292 120.332 31.2545C120.284 31.1714 120.239 31.0866 120.197 31.0005C120.157 30.9162 120.122 30.8359 120.093 30.7594C120.077 30.7156 120.062 30.6712 120.049 30.6263C119.956 30.3529 119.884 30.0731 119.833 29.7892C119.823 29.7346 119.814 29.6799 119.806 29.6251C119.765 29.3544 119.724 29.1107 119.682 28.894C119.67 28.83 119.658 28.7661 119.644 28.7024C119.456 27.6291 119.28 26.5363 119.119 25.4238C118.957 24.3113 118.728 23.2315 118.431 22.1844C118.383 22.0151 118.331 21.8469 118.275 21.6799C118.228 21.5398 118.179 21.4004 118.128 21.2617C118.061 21.0785 117.968 20.9054 117.852 20.7474C117.773 20.6412 117.682 20.5438 117.582 20.4568C117.563 20.4389 117.543 20.4218 117.523 20.4058C117.474 20.367 117.413 20.3251 117.339 20.2801C117.318 20.2673 117.297 20.2535 117.277 20.2389C117.21 20.1897 117.177 20.1445 117.177 20.1034C117.177 20.0068 117.303 19.9547 117.555 19.9472C117.577 19.9466 117.6 19.9463 117.622 19.9464C117.89 19.9464 118.158 20.0541 118.426 20.2695C118.484 20.3163 118.54 20.3657 118.593 20.4175C118.751 20.5724 118.895 20.74 119.023 20.9186C119.184 21.14 119.337 21.3918 119.483 21.674C119.811 22.3407 120.086 23.0306 120.306 23.7377C120.308 23.7435 120.31 23.7493 120.312 23.755C120.517 24.4107 120.684 24.9512 120.814 25.3763C120.828 25.4248 120.843 25.4734 120.858 25.5219C120.929 25.102 121.008 24.6833 121.094 24.2659C121.187 23.8175 121.283 23.3985 121.384 23.009C121.46 22.7548 121.54 22.5017 121.624 22.2496C121.699 22.0242 121.781 21.7867 121.869 21.537C121.961 21.2744 122.056 21.0125 122.152 20.7513C122.476 19.8744 122.88 19.0106 123.366 18.1598C123.639 17.6752 123.962 17.2185 124.33 16.7966C124.568 16.5252 124.827 16.2721 125.105 16.0395C125.779 15.4768 126.561 15.1954 127.451 15.1954C127.731 15.1902 128.011 15.2337 128.276 15.3238C129.02 15.5926 129.392 16.2827 129.392 17.3942C129.392 18.1295 129.266 18.9324 129.013 19.8031C129.005 19.8312 128.996 19.8594 128.988 19.8875C128.831 20.4156 128.659 20.9395 128.472 21.4584C128.361 21.7682 128.243 22.0757 128.118 22.3808C128.049 22.5507 127.98 22.7207 127.911 22.8908C127.713 23.3795 127.573 23.733 127.491 23.9513C127.445 24.0776 127.402 24.205 127.363 24.3334C127.274 24.6211 127.182 24.9627 127.087 25.3582C127.08 25.3866 127.073 25.415 127.067 25.4434C126.918 26.0716 126.797 26.726 126.702 27.4066C126.608 28.0872 126.561 28.7154 126.561 29.2913C126.561 29.6656 126.595 29.9918 126.664 30.2698C126.685 30.3572 126.712 30.4435 126.743 30.5282C126.77 30.6021 126.804 30.6732 126.846 30.7402C126.895 30.8171 126.952 30.8781 127.016 30.9232C127.107 30.9873 127.217 31.0209 127.329 31.019C127.513 31.0182 127.691 30.959 127.836 30.8505C127.918 30.791 127.992 30.7223 128.057 30.6459C128.147 30.5426 128.235 30.4376 128.321 30.331C128.4 30.2331 128.472 30.1389 128.539 30.0483C128.561 30.0187 128.582 29.9888 128.604 29.9588C128.617 29.94 128.63 29.9214 128.644 29.9031C128.765 29.7434 128.826 29.7227 128.826 29.841C128.88 30.2337 128.738 30.6787 128.401 31.176C128.315 31.306 128.215 31.4269 128.102 31.5369C127.965 31.669 127.82 31.7672 127.666 31.8313C127.521 31.8917 127.365 31.9226 127.208 31.922ZM138.776 31.922C138.426 31.922 138.115 31.7061 137.846 31.2742C137.765 31.1394 137.703 30.9954 137.659 30.8454C137.514 30.3727 137.441 29.6845 137.441 28.7809C137.441 27.8124 137.522 26.7457 137.684 25.5808C137.846 24.416 138.028 23.2577 138.23 22.1059C138.32 21.5933 138.41 21.0808 138.501 20.5683C138.586 20.0869 138.667 19.6325 138.744 19.2051C138.755 19.1446 138.765 19.0841 138.776 19.0237C138.898 18.3428 138.974 17.7996 139.004 17.3942C139.013 17.2766 139.018 17.1587 139.019 17.0408C139.019 16.5552 138.918 16.2305 138.717 16.0666C138.608 15.981 138.471 15.9365 138.331 15.9414C138.112 15.9437 137.896 15.9941 137.7 16.0886C137.555 16.1556 137.41 16.2456 137.263 16.3584C137.178 16.4248 137.095 16.4953 137.017 16.5696C136.572 16.9884 136.154 17.4989 135.763 18.1009C135.372 18.703 135.035 19.2854 134.752 19.8482C134.538 20.2725 134.382 20.6112 134.284 20.8644C134.255 20.937 134.229 21.0106 134.206 21.085C133.871 21.9821 133.617 22.9053 133.445 23.8445C133.428 23.9389 133.412 24.0334 133.397 24.128C133.235 25.1358 133.154 26.1763 133.154 27.2496C133.154 27.6787 133.172 28.1077 133.207 28.5355C133.21 28.5649 133.212 28.5944 133.215 28.6238C133.255 29.095 133.289 29.5793 133.316 30.0766C133.37 30.3384 133.295 30.659 133.093 31.0386C132.912 31.3794 132.703 31.5672 132.467 31.602C132.44 31.606 132.413 31.608 132.385 31.6079C132.228 31.6079 132.09 31.5264 131.97 31.3633C131.945 31.3283 131.921 31.292 131.9 31.2545C131.852 31.1714 131.807 31.0866 131.765 31.0005C131.725 30.9162 131.69 30.8359 131.661 30.7594C131.645 30.7156 131.63 30.6712 131.617 30.6263C131.524 30.3529 131.452 30.0731 131.401 29.7892C131.392 29.7346 131.383 29.6799 131.374 29.6251C131.333 29.3544 131.292 29.1107 131.25 28.894C131.238 28.83 131.226 28.7661 131.212 28.7024C131.024 27.6291 130.848 26.5363 130.687 25.4238C130.525 24.3113 130.296 23.2315 129.999 22.1844C129.951 22.0151 129.899 21.8469 129.843 21.6799C129.796 21.5398 129.747 21.4004 129.696 21.2617C129.629 21.0785 129.536 20.9054 129.42 20.7474C129.341 20.6412 129.25 20.5438 129.15 20.4568C129.131 20.4389 129.111 20.4218 129.091 20.4058C129.042 20.367 128.981 20.3251 128.907 20.2801C128.886 20.2673 128.865 20.2535 128.845 20.2389C128.778 20.1897 128.745 20.1445 128.745 20.1034C128.745 20.0068 128.871 19.9547 129.123 19.9472C129.146 19.9466 129.168 19.9463 129.19 19.9464C129.458 19.9464 129.726 20.0541 129.994 20.2695C130.052 20.3163 130.108 20.3657 130.161 20.4175C130.319 20.5724 130.463 20.74 130.591 20.9186C130.752 21.14 130.905 21.3918 131.051 21.674C131.379 22.3407 131.654 23.0306 131.875 23.7377C131.876 23.7435 131.878 23.7493 131.88 23.755C132.085 24.4107 132.252 24.9512 132.382 25.3763C132.396 25.4248 132.411 25.4734 132.426 25.5219C132.498 25.102 132.576 24.6833 132.662 24.2659C132.755 23.8175 132.851 23.3985 132.952 23.009C133.028 22.7548 133.109 22.5017 133.192 22.2496C133.267 22.0242 133.349 21.7867 133.437 21.537C133.529 21.2744 133.624 21.0125 133.72 20.7513C134.044 19.8744 134.448 19.0106 134.934 18.1598C135.207 17.6752 135.53 17.2185 135.898 16.7966C136.136 16.5252 136.395 16.2721 136.673 16.0395C137.347 15.4768 138.129 15.1954 139.019 15.1954C139.3 15.1902 139.579 15.2337 139.844 15.3238C140.588 15.5926 140.96 16.2827 140.96 17.3942C140.96 18.1295 140.834 18.9324 140.581 19.8031C140.573 19.8312 140.564 19.8594 140.556 19.8875C140.399 20.4156 140.227 20.9395 140.041 21.4584C139.929 21.7682 139.811 22.0757 139.686 22.3808C139.617 22.5507 139.548 22.7207 139.479 22.8908C139.281 23.3795 139.141 23.733 139.059 23.9513C139.013 24.0776 138.97 24.205 138.931 24.3334C138.842 24.6211 138.75 24.9627 138.655 25.3582C138.648 25.3866 138.641 25.415 138.635 25.4434C138.486 26.0716 138.365 26.726 138.271 27.4066C138.176 28.0872 138.129 28.7154 138.129 29.2913C138.129 29.6656 138.163 29.9918 138.232 30.2698C138.254 30.3572 138.28 30.4435 138.311 30.5282C138.338 30.6021 138.372 30.6732 138.414 30.7402C138.463 30.8171 138.52 30.8781 138.584 30.9232C138.675 30.9873 138.785 31.0209 138.897 31.019C139.081 31.0182 139.259 30.959 139.404 30.8505C139.486 30.791 139.56 30.7223 139.626 30.6459C139.715 30.5426 139.803 30.4376 139.889 30.331C139.968 30.2331 140.041 30.1389 140.107 30.0483C140.129 30.0187 140.15 29.9888 140.172 29.9588C140.185 29.94 140.199 29.9214 140.212 29.9031C140.334 29.7434 140.394 29.7227 140.394 29.841C140.448 30.2337 140.306 30.6787 139.969 31.176C139.883 31.306 139.783 31.4269 139.67 31.5369C139.533 31.669 139.388 31.7672 139.234 31.8313C139.089 31.8917 138.933 31.9226 138.776 31.922ZM105.083 12.6824H105.245C105.287 12.6823 105.33 12.6839 105.372 12.6871C105.557 12.7021 105.649 12.7528 105.649 12.8395C105.649 12.9065 105.556 12.9832 105.369 13.0696C105.335 13.0852 105.3 13.1002 105.265 13.1143C105.06 13.1984 104.746 13.2571 104.324 13.2906C104.213 13.2993 104.102 13.3059 103.991 13.3107C102.751 13.363 101.578 13.5135 100.472 13.7622C99.4983 13.9796 98.5389 14.2539 97.5991 14.5836C97.5049 14.6168 97.411 14.6506 97.3172 14.6849C97.0398 15.5049 96.7792 16.3301 96.5358 17.1602C96.3604 17.7588 96.1961 18.3604 96.0431 18.9648C95.706 20.2997 95.4297 21.5431 95.2139 22.6949C96.9159 22.3699 98.5882 21.9124 100.214 21.3269C101.137 20.9927 102.039 20.6105 102.919 20.182C104.448 19.4414 105.913 18.5845 107.302 17.6192C107.901 17.2003 108.484 16.7585 109.047 16.2948C110.063 15.4627 111.022 14.5674 111.918 13.6146C112.49 13.0037 113.031 12.3649 113.537 11.7008C113.779 11.3943 114.01 11.0788 114.227 10.7549C114.577 10.2312 114.846 9.74152 115.033 9.28605C115.137 9.03813 115.226 8.78488 115.3 8.52746C115.374 8.2678 115.425 8.02134 115.453 7.78811C115.47 7.65323 115.478 7.51754 115.478 7.38173C115.478 6.49173 115.161 5.77843 114.528 5.24181C114.163 4.9369 113.753 4.6858 113.313 4.49657C112.953 4.33847 112.557 4.20758 112.127 4.10393C112.098 4.09697 112.069 4.09017 112.04 4.08351C111.308 3.91754 110.562 3.81089 109.812 3.76468C109.45 3.74143 109.087 3.7299 108.723 3.73013C107.483 3.73013 106.256 3.83483 105.043 4.04424C103.829 4.25365 102.751 4.52851 101.807 4.8688C101.632 4.94157 101.481 4.95819 101.352 4.91866C101.342 4.9155 101.332 4.91197 101.322 4.90806C100.802 6.0187 100.3 7.13655 99.8137 8.26125C99.6048 8.74536 99.3996 9.23094 99.198 9.71796C98.5644 11.2493 98.0048 12.7086 97.5195 14.096C98.638 13.7442 99.7738 13.4463 100.923 13.2035C101.002 13.1866 101.081 13.17 101.16 13.1536C102.427 12.8918 103.735 12.7348 105.083 12.6824ZM24.46 30.7983C24.5482 30.893 24.656 30.9686 24.7764 31.0201C24.8967 31.0717 25.0269 31.098 25.1585 31.0975C25.3365 31.0954 25.513 31.0665 25.6819 31.0119C25.9766 30.9203 26.2965 30.7555 26.6417 30.5175C26.6462 30.5145 26.6506 30.5115 26.655 30.5085C26.6645 30.502 26.6739 30.4955 26.6834 30.4889C26.9746 30.2847 27.2641 30.0476 27.5518 29.7774C27.827 29.5177 28.088 29.244 28.3336 28.9576C28.8864 28.3163 29.3853 27.6422 29.8302 26.9354C30.0562 26.5766 30.2491 26.2278 30.409 25.889C30.5567 25.5795 30.6809 25.26 30.7807 24.933C30.8346 25.3518 30.8616 25.7837 30.8616 26.2287C30.8616 26.5208 30.9139 26.8467 31.0185 27.2064C31.0776 27.4072 31.1467 27.605 31.2256 27.7993C31.2635 27.8867 31.3031 27.9733 31.3446 28.0592C31.4333 28.2427 31.5251 28.4107 31.62 28.5634C31.7135 28.7151 31.8182 28.86 31.9335 28.9968C32.0768 29.1695 32.2669 29.3001 32.4824 29.3738C32.6377 29.4249 32.8009 29.4501 32.9649 29.4484C33.4233 29.4484 33.8547 29.2521 34.2592 28.8594C34.6637 28.4668 34.8659 28.1003 34.8659 27.76C34.8659 27.5768 34.785 27.4852 34.6232 27.4852C34.5987 27.4852 34.5743 27.4881 34.5504 27.4938C34.4704 27.5124 34.3858 27.5611 34.2968 27.6399C34.2549 27.6775 34.2153 27.7177 34.1783 27.76C34.1743 27.7677 34.1698 27.7751 34.165 27.7824C34.1283 27.8384 34.0351 27.9555 33.8855 28.1338C33.8417 28.1861 33.7978 28.2381 33.7536 28.2901C33.4975 28.5911 33.248 28.7416 33.0053 28.7416C32.6033 28.7416 32.3677 28.3198 32.2987 27.4761C32.2837 27.2832 32.2766 27.0897 32.2773 26.8962C32.2774 26.6692 32.2853 26.4422 32.3011 26.2157C32.3363 25.7257 32.4027 25.2383 32.4997 24.7563C32.5449 24.531 32.5848 24.3048 32.6195 24.0778C32.6518 23.8642 32.6765 23.6634 32.6935 23.4755C32.7118 23.2812 32.7214 23.0863 32.7222 22.8912C32.7239 22.7639 32.7094 22.6369 32.6789 22.5131C32.5738 22.1108 32.2781 21.9096 31.7919 21.9096C31.7505 21.9095 31.7092 21.9151 31.6694 21.9261C31.5321 21.9643 31.4094 22.0685 31.3013 22.2386C31.2571 22.3093 31.2183 22.3831 31.1852 22.4593C30.7537 23.3493 30.2886 24.3374 29.7897 25.4238C29.6082 25.8202 29.4124 26.2103 29.2028 26.5935C28.8789 27.1886 28.5142 27.762 28.1112 28.3097C28.0567 28.3858 28.0014 28.4613 27.9453 28.5363C27.584 29.0197 27.2685 29.3696 26.9989 29.5858C26.7928 29.751 26.6077 29.8613 26.4435 29.9168C26.3687 29.9434 26.2898 29.9576 26.2101 29.9588C26.0936 29.962 25.9797 29.9241 25.8898 29.852C25.8337 29.8065 25.7854 29.7461 25.745 29.671C25.7108 29.6063 25.6837 29.5382 25.6641 29.468C25.6363 29.3707 25.6135 29.2722 25.5957 29.1727C25.5469 28.9031 25.5225 28.5893 25.5225 28.2312C25.5225 27.6553 25.563 27.0663 25.6439 26.4643C25.6946 26.0881 25.7504 25.7476 25.8113 25.4426C25.8453 25.2718 25.8838 25.1018 25.927 24.933C26.0098 24.5909 26.0888 24.248 26.164 23.9042C26.2973 23.2936 26.4205 22.681 26.5337 22.0667C26.5477 21.9911 26.5613 21.9154 26.5746 21.8397C26.7361 20.9094 26.8168 20.0689 26.8168 19.3181C26.8169 19.2879 26.8167 19.2577 26.8164 19.2274C26.8116 18.7853 26.7711 18.405 26.6951 18.0864C26.6574 17.9229 26.6034 17.7634 26.5337 17.6101C26.4142 17.3533 26.2463 17.1778 26.0297 17.0836C25.8952 17.0271 25.7499 16.9992 25.6034 17.0015C25.3516 17.0015 25.124 17.0996 24.9206 17.2956C24.8352 17.3795 24.7591 17.4717 24.6933 17.5709C24.6411 17.6479 24.5924 17.7272 24.5473 17.8084C24.3885 18.0964 24.3091 18.364 24.3091 18.6114C24.309 18.6198 24.3092 18.6281 24.3095 18.6365C24.3122 18.6983 24.3255 18.7292 24.3495 18.7292C24.3499 18.7292 24.3503 18.7292 24.3507 18.7292C24.3799 18.7255 24.4873 18.6077 24.6731 18.3758C24.8079 18.2449 24.9428 18.1075 25.0776 17.9635C25.1188 17.9189 25.165 17.879 25.2155 17.8445C25.305 17.782 25.4123 17.7481 25.5225 17.7476C25.5565 17.7474 25.5905 17.7501 25.624 17.7558C25.781 17.783 25.882 17.8784 25.927 18.042C25.9401 18.0902 25.9513 18.1387 25.9606 18.1877C25.9921 18.3545 26.0079 18.548 26.0079 18.7684C26.0079 18.7824 26.0079 18.7964 26.0079 18.8104C26.0049 19.234 25.9572 19.7385 25.8647 20.3241C25.8177 20.6181 25.7643 20.9111 25.7045 21.2028C25.6918 21.2651 25.679 21.3274 25.6661 21.3897C25.4674 22.352 25.251 23.3107 25.0169 24.2655C24.7607 25.3125 24.5248 26.2614 24.3091 27.1121C24.0934 27.9629 23.9855 28.5715 23.9855 28.9379C23.9847 28.9578 23.9841 28.9777 23.9835 28.9976C23.97 29.4958 24.0134 29.9011 24.1137 30.2136C24.154 30.3454 24.213 30.471 24.2889 30.587C24.339 30.6625 24.3963 30.7332 24.46 30.7983ZM112.65 31.3492C113.088 31.7157 113.646 31.9188 114.224 31.922C114.568 31.9203 114.908 31.8627 115.232 31.7516C115.57 31.6383 115.911 31.4687 116.255 31.2428C116.568 31.0347 116.863 30.8023 117.137 30.5478C117.346 30.3547 117.545 30.1506 117.732 29.9364C118.476 29.0844 119.127 27.9925 119.685 26.6606C119.691 26.6477 119.698 26.6348 119.704 26.6217C119.747 26.534 119.78 26.4487 119.804 26.3657C119.832 26.27 119.846 26.1711 119.847 26.0716C119.847 25.918 119.803 25.8207 119.716 25.7799C119.681 25.7643 119.642 25.7567 119.604 25.7575C119.536 25.7577 119.468 25.7743 119.408 25.8058C119.244 25.8898 119.093 26.0831 118.957 26.3857C118.444 27.4336 117.925 28.2983 117.4 28.98C117.15 29.3087 116.873 29.6164 116.57 29.8999C116.521 29.9456 116.471 29.9906 116.42 30.035C115.971 30.4287 115.547 30.7042 115.148 30.8615C114.907 30.9615 114.648 31.015 114.386 31.019C113.631 31.019 113.024 30.6067 112.566 29.7821C112.394 29.4655 112.259 29.1307 112.165 28.7844C112.066 28.4342 111.993 28.0483 111.946 27.6269C111.899 27.2016 111.877 26.7742 111.878 26.3465C111.878 25.98 111.899 25.607 111.939 25.2274C111.98 24.8479 112.027 24.4487 112.081 24.0299C112.232 22.9807 112.447 22.1485 112.726 21.533C112.828 21.2983 112.958 21.0756 113.112 20.8691C113.176 20.7855 113.243 20.7039 113.312 20.6245C113.708 20.1724 114.08 19.9464 114.427 19.9464C114.642 19.9464 114.831 20.0445 114.993 20.2409C115.155 20.4372 115.236 20.7055 115.236 21.0458C115.234 21.257 115.205 21.4671 115.149 21.6713C115.092 21.8888 115.006 22.1164 114.891 22.3541C114.778 22.5865 114.65 22.8118 114.508 23.0286C114.424 23.1565 114.338 23.2821 114.248 23.4056C114.056 23.6692 113.86 23.9041 113.66 24.1104C113.451 24.3284 113.22 24.5251 112.97 24.6974C112.675 24.8764 112.481 25.0432 112.388 25.1976C112.348 25.2596 112.325 25.3309 112.323 25.4041C112.323 25.4077 112.323 25.4112 112.324 25.4147C112.328 25.4862 112.382 25.5219 112.485 25.5219C112.571 25.5219 112.649 25.5146 112.72 25.4999C112.779 25.4881 112.836 25.4691 112.89 25.4434C113.037 25.3899 113.18 25.3244 113.317 25.2475C113.512 25.1381 113.709 25.0014 113.907 24.8375C114.098 24.6777 114.278 24.5063 114.447 24.3244C114.973 23.7616 115.424 23.1333 115.802 22.4397C115.812 22.4201 115.823 22.4005 115.833 22.3808C115.989 22.0868 116.111 21.7989 116.199 21.5169C116.308 21.1736 116.366 20.8163 116.368 20.4568C116.368 20.4253 116.368 20.3937 116.367 20.3622C116.36 20.1433 116.332 19.9422 116.282 19.7587C116.202 19.4496 116.036 19.1679 115.802 18.9451C115.424 18.5917 114.966 18.4151 114.427 18.4151C114.27 18.4155 114.114 18.4336 113.961 18.4688C113.746 18.5178 113.527 18.6002 113.303 18.7162C113.101 18.8226 112.909 18.9452 112.728 19.0825C112.561 19.2086 112.406 19.3489 112.265 19.5019C112.057 19.7262 111.862 19.9884 111.682 20.2884C111.511 20.5762 111.36 20.8752 111.231 21.1832C111.098 21.5017 110.992 21.83 110.913 22.1648C110.721 22.9548 110.625 23.8906 110.625 24.9722C110.625 26.5949 110.787 27.9235 111.111 28.958C111.247 29.4127 111.444 29.8481 111.696 30.2533C111.781 30.3852 111.871 30.5137 111.966 30.6385C112.183 30.9225 112.411 31.1594 112.65 31.3492ZM143.794 31.3492C144.233 31.7157 144.791 31.9188 145.369 31.922C145.712 31.9203 146.053 31.8627 146.377 31.7516C146.714 31.6383 147.055 31.4687 147.4 31.2428C147.713 31.0347 148.007 30.8023 148.281 30.5478C148.491 30.3547 148.69 30.1506 148.876 29.9364C149.621 29.0844 150.272 27.9925 150.83 26.6606C150.836 26.6477 150.843 26.6348 150.849 26.6217C150.892 26.534 150.925 26.4487 150.948 26.3657C150.976 26.27 150.991 26.1711 150.991 26.0716C150.991 25.918 150.948 25.8207 150.86 25.7799C150.825 25.7643 150.787 25.7567 150.749 25.7575C150.68 25.7577 150.613 25.7743 150.553 25.8058C150.388 25.8898 150.238 26.0831 150.101 26.3857C149.588 27.4336 149.069 28.2983 148.545 28.98C148.295 29.3087 148.018 29.6164 147.715 29.8999C147.666 29.9456 147.616 29.9906 147.565 30.035C147.116 30.4287 146.691 30.7042 146.293 30.8615C146.052 30.9615 145.793 31.015 145.531 31.019C144.776 31.019 144.169 30.6067 143.711 29.7821C143.538 29.4655 143.404 29.1307 143.31 28.7844C143.211 28.4342 143.138 28.0483 143.09 27.6269C143.044 27.2016 143.022 26.7742 143.023 26.3465C143.023 25.98 143.043 25.607 143.084 25.2274C143.124 24.8479 143.171 24.4487 143.225 24.0299C143.377 22.9807 143.592 22.1485 143.871 21.533C143.973 21.2983 144.103 21.0756 144.257 20.8691C144.321 20.7855 144.388 20.7039 144.457 20.6245C144.853 20.1724 145.225 19.9464 145.571 19.9464C145.787 19.9464 145.976 20.0445 146.138 20.2409C146.299 20.4372 146.38 20.7055 146.38 21.0458C146.379 21.257 146.349 21.4671 146.294 21.6713C146.237 21.8888 146.151 22.1164 146.036 22.3541C145.923 22.5865 145.795 22.8118 145.652 23.0286C145.569 23.1565 145.483 23.2821 145.393 23.4056C145.201 23.6692 145.005 23.9041 144.804 24.1104C144.596 24.3284 144.365 24.5251 144.115 24.6974C143.82 24.8764 143.626 25.0432 143.533 25.1976C143.493 25.2596 143.47 25.3309 143.468 25.4041C143.468 25.4077 143.468 25.4112 143.468 25.4147C143.473 25.4862 143.527 25.5219 143.63 25.5219C143.716 25.5219 143.794 25.5146 143.865 25.4999C143.924 25.4881 143.981 25.4691 144.034 25.4434C144.182 25.3899 144.325 25.3244 144.461 25.2475C144.657 25.1381 144.854 25.0014 145.052 24.8375C145.243 24.6777 145.423 24.5063 145.592 24.3244C146.117 23.7616 146.569 23.1333 146.947 22.4397C146.957 22.4201 146.968 22.4005 146.978 22.3808C147.134 22.0868 147.256 21.7989 147.343 21.5169C147.453 21.1736 147.51 20.8163 147.513 20.4568C147.513 20.4253 147.512 20.3937 147.512 20.3622C147.505 20.1433 147.477 19.9422 147.426 19.7587C147.347 19.4496 147.181 19.1679 146.947 18.9451C146.569 18.5917 146.111 18.4151 145.571 18.4151C145.415 18.4155 145.259 18.4336 145.106 18.4688C144.891 18.5178 144.671 18.6002 144.448 18.7162C144.246 18.8226 144.053 18.9452 143.873 19.0825C143.706 19.2086 143.551 19.3489 143.41 19.5019C143.201 19.7262 143.007 19.9884 142.827 20.2884C142.655 20.5762 142.505 20.8752 142.376 21.1832C142.243 21.5017 142.137 21.83 142.057 22.1648C141.865 22.9548 141.769 23.8906 141.769 24.9722C141.769 26.5949 141.931 27.9235 142.256 28.958C142.392 29.4127 142.589 29.8481 142.841 30.2533C142.926 30.3852 143.015 30.5137 143.111 30.6385C143.328 30.9225 143.556 31.1594 143.794 31.3492ZM153.864 33.0713C153.957 33.0912 154.051 33.1008 154.146 33.1C154.605 33.1 155.077 32.8775 155.562 32.4325C155.676 32.329 155.783 32.2182 155.881 32.1007C156.154 31.7719 156.29 31.4506 156.29 31.1368C156.29 31.1076 156.29 31.0784 156.288 31.0492C156.28 30.7795 156.211 30.5147 156.088 30.2729C156.061 30.2216 156.033 30.1709 156.004 30.121C155.878 29.9085 155.73 29.7094 155.562 29.5269C155.781 29.2979 155.982 29.0919 156.164 28.9089C156.266 28.8065 156.368 28.7049 156.472 28.6042L156.937 28.1526C156.987 28.1156 157.034 28.0764 157.08 28.0352C157.227 27.9015 157.301 27.7836 157.301 27.6815C157.301 27.6668 157.3 27.6521 157.296 27.6379C157.286 27.6023 157.264 27.5795 157.228 27.5696C157.212 27.5654 157.196 27.5635 157.18 27.5637C157.165 27.564 157.149 27.5658 157.135 27.5692C157.048 27.587 156.915 27.6506 156.735 27.76C156.591 27.8532 156.44 27.965 156.281 28.0953C156.167 28.1898 156.055 28.2875 155.946 28.3882C155.663 28.65 155.4 28.9249 155.157 29.2128C154.962 29.013 154.763 28.8166 154.561 28.6238C154.222 28.3014 153.874 27.9872 153.519 27.6815C152.913 27.1579 152.394 26.5559 151.962 25.8753C151.722 25.494 151.549 25.0771 151.448 24.6412C151.357 24.2473 151.312 23.8446 151.315 23.4409C151.316 23.0754 151.352 22.7108 151.422 22.3517C151.508 21.9128 151.635 21.4823 151.8 21.0654C151.84 20.963 151.882 20.8613 151.926 20.7603C152.217 20.0788 152.596 19.4359 153.054 18.847C153.199 18.6693 153.353 18.4987 153.515 18.3357C153.948 17.9035 154.431 17.5216 154.955 17.1979C155.111 17.1002 155.271 17.0093 155.435 16.9254C155.692 16.7945 155.941 16.6932 156.181 16.6214C156.452 16.5377 156.734 16.4937 157.018 16.4911C157.152 16.4905 157.285 16.5116 157.411 16.5535C157.563 16.6055 157.704 16.6841 157.827 16.7856C158.07 16.9819 158.191 17.2109 158.191 17.4727V17.7672C158.191 17.9112 158.205 18.0486 158.231 18.1795C158.238 18.2133 158.247 18.2468 158.256 18.28C158.312 18.4747 158.398 18.5721 158.515 18.5721C158.78 18.5721 158.936 18.3343 158.984 17.8587C158.995 17.7434 159 17.6277 159 17.512C159 17.4372 158.996 17.3624 158.987 17.2882C158.926 16.8018 158.661 16.4445 158.191 16.2162C157.652 15.9545 157.099 15.8236 156.533 15.8236C155.697 15.8236 154.888 16.0134 154.106 16.3929C153.324 16.7725 152.609 17.2764 151.962 17.9046C151.83 18.0333 151.702 18.1667 151.58 18.3047C151.14 18.8052 150.766 19.3566 150.466 19.9464C150.061 20.7317 149.859 21.5562 149.859 22.42C149.859 23.153 150.034 23.9186 150.385 24.717C150.514 25.0123 150.66 25.3002 150.823 25.5793C151.064 25.995 151.351 26.3839 151.679 26.7391C151.901 26.976 152.134 27.2036 152.376 27.4212C152.702 27.7155 153.051 27.9863 153.418 28.2312C153.658 28.3891 153.887 28.5621 154.104 28.7491C154.376 28.982 154.62 29.2428 154.834 29.5269C154.726 29.684 154.551 29.8999 154.308 30.1748C154.254 30.236 154.2 30.2972 154.146 30.3585C153.98 30.5478 153.845 30.7025 153.742 30.8226C153.684 30.89 153.63 30.9596 153.578 31.0311C153.31 31.4028 153.176 31.7652 153.176 32.1184C153.176 32.1384 153.176 32.1584 153.178 32.1784C153.19 32.369 153.264 32.5649 153.398 32.7662C153.503 32.9235 153.658 33.0252 153.864 33.0713ZM75.5563 27.2888L75.8395 27.2103C75.8934 27.2103 75.9204 27.2365 75.9204 27.2888C75.9195 27.3146 75.912 27.3397 75.8985 27.3619C75.8624 27.4257 75.782 27.4995 75.6575 27.5833C75.5983 27.6232 75.5379 27.6613 75.4763 27.6976C75.4183 27.7316 75.363 27.7613 75.3104 27.7867C75.2718 27.8055 75.2324 27.8228 75.1923 27.8385C74.8607 27.9978 74.4989 28.0895 74.1293 28.1079C74.0658 28.1116 74.0021 28.1134 73.9384 28.1134C73.2643 28.1134 72.6239 27.9105 72.0172 27.5048C71.4105 27.0991 70.8779 26.6344 70.4195 26.1109C70.3925 26.3203 70.379 26.5232 70.379 26.7195V27.2888C70.379 28.7887 70.6422 29.9311 71.1686 30.7158C71.175 30.7253 71.1815 30.7347 71.188 30.7441C71.3253 30.9475 71.483 31.1371 71.6588 31.3103C71.8613 31.5064 72.0734 31.6552 72.295 31.7567C72.5303 31.8659 72.7878 31.9224 73.0486 31.922C73.4928 31.9163 73.9243 31.777 74.2835 31.5231C74.7405 31.2171 75.1783 30.7349 75.5968 30.0766C76.1631 29.2128 76.5675 28.2246 76.8102 27.1121C77.0529 25.9996 77.1743 24.8806 77.1743 23.755C77.1743 22.9174 77.1203 22.1059 77.0125 21.3206C76.9046 20.5353 76.7428 19.7762 76.5271 19.0433C76.3383 18.3889 76.0215 17.8065 75.5766 17.296C75.4099 17.1032 75.2043 16.9456 74.9724 16.8329C74.7406 16.7203 74.4873 16.655 74.2284 16.6411C74.0788 16.629 73.9213 16.6296 73.756 16.6427C73.7359 16.6443 73.7158 16.6461 73.6957 16.6481C73.2159 16.6885 72.762 16.8773 72.401 17.1869C72.2541 17.3094 72.1189 17.4445 71.9969 17.5905C71.5116 18.1664 71.1408 18.8142 70.8846 19.5341C70.7975 19.7767 70.722 20.023 70.6581 20.2723C70.5991 20.5063 70.5566 20.7275 70.5307 20.9358C70.5111 21.0895 70.501 21.2443 70.5004 21.3992C70.5002 21.4819 70.5041 21.5646 70.5121 21.6469C70.5286 21.8123 70.5632 21.9486 70.6161 22.0557C70.6179 22.0593 70.6198 22.063 70.6217 22.0667C70.6459 22.0056 70.6732 21.9457 70.7034 21.8872C70.8094 21.6783 70.9844 21.3913 71.2284 21.0261C71.552 20.5419 71.916 20.0969 72.3205 19.6911C72.697 19.3134 73.0502 19.1115 73.3803 19.0853C73.4045 19.0834 73.4288 19.0825 73.4531 19.0825C73.7189 19.0825 73.8656 19.1772 73.8931 19.3664C73.8964 19.3895 73.898 19.4127 73.898 19.4359C73.7253 19.4507 73.5583 19.503 73.4094 19.5891C73.2266 19.6911 73.0456 19.843 72.8666 20.0445C72.669 20.2684 72.4875 20.5052 72.3234 20.7533C72.1844 20.9628 72.0552 21.1783 71.9363 21.3992C71.6531 21.9227 71.4239 22.4397 71.2487 22.9501C71.0734 23.4605 70.9453 23.8597 70.8644 24.1477C70.8542 24.187 70.8433 24.2261 70.8316 24.2651C70.8198 24.3051 70.8064 24.3482 70.7916 24.3942C70.7759 24.4431 70.7597 24.4918 70.7431 24.5403C70.6909 24.6897 70.6636 24.8463 70.6622 25.004C70.6622 25.0065 70.6622 25.009 70.6622 25.0115C70.6622 25.189 70.7632 25.4705 70.9651 25.8561C70.972 25.869 70.9788 25.882 70.9858 25.8949C71.106 26.1174 71.2572 26.3227 71.4351 26.5051C71.584 26.6601 71.7563 26.8093 71.952 26.9527C71.9803 26.9734 72.0087 26.9939 72.0374 27.014C72.2794 27.1802 72.5495 27.3042 72.8354 27.3803C73.0673 27.445 73.3216 27.4879 73.5983 27.5091C73.7384 27.5196 73.8788 27.5247 74.0193 27.5244C74.262 27.5244 74.5182 27.4982 74.7878 27.4459C75.0575 27.3935 75.3137 27.3412 75.5563 27.2888ZM8.00865 23.3624C9.26464 23.3573 10.5088 23.1263 11.6781 22.6811C11.8795 22.6059 12.0789 22.5254 12.2759 22.4397C13.4587 21.9212 14.5799 21.2794 15.6197 20.5255C15.8712 20.3445 16.1184 20.158 16.3611 19.966C17.6689 18.932 18.8756 17.7868 19.9812 16.5304C20.8185 15.5825 21.5972 14.5872 22.313 13.5498C22.5049 13.2705 22.6917 12.9879 22.8732 12.7021C23.6956 11.4063 24.336 10.1761 24.7945 9.0112C24.9396 8.64563 25.0678 8.27395 25.1787 7.89727C25.2798 7.54991 25.3557 7.22192 25.4064 6.9133C25.455 6.62682 25.4803 6.33707 25.4821 6.04673C25.4832 5.8623 25.4679 5.67812 25.4364 5.49625C25.3738 5.14941 25.2475 4.86173 25.0574 4.63321C24.795 4.31805 24.3995 4.14882 23.871 4.12552C23.8283 4.12367 23.7856 4.12275 23.7428 4.12277C23.1952 4.12709 22.6524 4.22163 22.1374 4.40234C21.6383 4.57222 21.1285 4.81933 20.6081 5.14365C19.516 5.82423 18.4037 6.74041 17.2712 7.89217C16.3966 8.78417 15.5653 9.71522 14.78 10.6823C14.5066 11.0181 14.2381 11.3576 13.9747 11.7008C12.9096 13.0882 11.9119 14.4951 10.9816 15.9218C10.0513 17.3484 9.22208 18.6964 8.49402 19.966C7.76596 21.2356 7.19969 22.3022 6.79522 23.1661C6.93004 23.2446 7.13228 23.2969 7.40193 23.3231C7.46512 23.3293 7.52836 23.3351 7.59163 23.3404C7.71325 23.3503 7.81693 23.357 7.90268 23.3604C7.93798 23.3617 7.97331 23.3624 8.00865 23.3624ZM36.064 32.2731C36.2938 32.3292 36.53 32.3563 36.767 32.354C37.112 32.3544 37.4543 32.2942 37.7774 32.1765C38.098 32.0576 38.3982 31.8924 38.668 31.6865C39.2613 31.2415 39.7871 30.731 40.2455 30.1551C40.3346 30.0507 40.4195 29.9429 40.4999 29.832C40.5983 29.6972 40.6992 29.548 40.8024 29.3844C40.9111 29.2119 41.0153 29.0369 41.1151 28.8594C41.1729 28.7571 41.2296 28.6542 41.2854 28.5508C41.5183 28.1199 41.7314 27.6792 41.9241 27.2299C41.9639 27.1368 42.002 27.0429 42.0381 26.9484C42.1387 26.6851 42.2063 26.4575 42.2408 26.2656C42.2578 26.1757 42.2669 26.0845 42.2679 25.9931C42.2679 25.7837 42.2139 25.679 42.1061 25.679C42.1032 25.679 42.1004 25.6792 42.0976 25.6794C41.9663 25.6878 41.7921 25.8883 41.575 26.2809C41.5204 26.3801 41.4682 26.4805 41.4185 26.5821C40.9601 27.5244 40.4342 28.4013 39.841 29.2128C39.7366 29.3557 39.6298 29.4969 39.5207 29.6365C39.0388 30.2529 38.5658 30.7595 38.1018 31.1564C37.5355 31.6406 37.0366 31.8828 36.6052 31.8828C36.49 31.8841 36.3762 31.8578 36.2739 31.8062C36.1771 31.757 36.0899 31.6837 36.0122 31.5863C35.9509 31.5078 35.8988 31.4229 35.8569 31.3331C35.6816 30.9666 35.594 30.3776 35.594 29.5662C35.5937 29.2967 35.6014 29.0272 35.617 28.7581C35.6427 28.3265 35.6896 27.9236 35.7578 27.5495C35.8254 27.1671 35.9262 26.7909 36.0591 26.425C36.3692 25.5874 36.7939 24.6319 37.3332 23.5587C37.5759 23.0875 37.8456 22.5836 38.1422 22.047C38.2364 21.8775 38.3179 21.7017 38.3861 21.5209C38.5168 21.1804 38.5849 20.8202 38.5871 20.4568C38.5871 20.3424 38.5755 20.2367 38.5523 20.1395C38.5253 20.0213 38.4754 19.9091 38.4051 19.8089C38.3292 19.6996 38.2161 19.6196 38.0856 19.5832C38.0119 19.5628 37.9356 19.5529 37.8591 19.5537C37.6002 19.5537 37.356 19.6714 37.1266 19.9067C37.0387 19.9983 36.959 20.097 36.8883 20.2016C36.7214 20.4445 36.5546 20.7144 36.388 21.0112C36.2514 21.2549 36.1215 21.5021 35.9985 21.7525C35.9872 21.7809 35.9762 21.8093 35.9653 21.8377C35.8324 22.1854 35.6479 22.7328 35.412 23.4802C35.2959 23.849 35.189 24.2204 35.0912 24.5941C34.9549 25.1162 34.8325 25.6416 34.7244 26.1698C34.5221 27.1514 34.421 28.0872 34.421 28.9772C34.4199 29.3102 34.4446 29.6428 34.495 29.9722C34.5653 30.4424 34.7038 30.9006 34.9064 31.3331C35.011 31.5662 35.1701 31.7724 35.371 31.9356C35.5719 32.0987 35.8092 32.2142 36.064 32.2731ZM54.225 32.2731C54.4548 32.3292 54.6911 32.3563 54.928 32.354C55.2731 32.3544 55.6154 32.2942 55.9384 32.1765C56.259 32.0576 56.5593 31.8924 56.829 31.6865C57.4223 31.2415 57.9481 30.731 58.4065 30.1551C58.4956 30.0507 58.5805 29.9429 58.6609 29.832C58.7594 29.6972 58.8602 29.548 58.9635 29.3844C59.0721 29.2119 59.1764 29.0369 59.2761 28.8594C59.3339 28.7571 59.3907 28.6542 59.4464 28.5508C59.6794 28.1199 59.8925 27.6792 60.0851 27.2299C60.125 27.1368 60.163 27.0429 60.1992 26.9484C60.2997 26.6851 60.3673 26.4575 60.4018 26.2656C60.4188 26.1757 60.4279 26.0845 60.4289 25.9931C60.4289 25.7837 60.375 25.679 60.2671 25.679C60.2643 25.679 60.2614 25.6792 60.2586 25.6794C60.1273 25.6878 59.9531 25.8883 59.736 26.2809C59.6815 26.3801 59.6293 26.4805 59.5795 26.5821C59.1211 27.5244 58.5953 28.4013 58.002 29.2128C57.8976 29.3557 57.7908 29.4969 57.6817 29.6365C57.1998 30.2529 56.7269 30.7595 56.2628 31.1564C55.6965 31.6406 55.1977 31.8828 54.7662 31.8828C54.651 31.8841 54.5372 31.8578 54.4349 31.8062C54.3381 31.757 54.2509 31.6837 54.1733 31.5863C54.1119 31.5078 54.0598 31.4229 54.0179 31.3331C53.8427 30.9666 53.755 30.3776 53.755 29.5662C53.7547 29.2967 53.7624 29.0272 53.7781 28.7581C53.8037 28.3265 53.8506 27.9236 53.9188 27.5495C53.9864 27.1671 54.0872 26.7909 54.2202 26.425C54.5303 25.5874 54.955 24.6319 55.4943 23.5587C55.737 23.0875 56.0066 22.5836 56.3032 22.047C56.3974 21.8775 56.4789 21.7017 56.5471 21.5209C56.6779 21.1804 56.7459 20.8202 56.7482 20.4568C56.7482 20.3424 56.7366 20.2367 56.7134 20.1395C56.6864 20.0213 56.6364 19.9091 56.5661 19.8089C56.4903 19.6996 56.3771 19.6196 56.2466 19.5832C56.1729 19.5628 56.0967 19.5529 56.0201 19.5537C55.7612 19.5537 55.5171 19.6714 55.2876 19.9067C55.1998 19.9983 55.1201 20.097 55.0494 20.2016C54.8824 20.4445 54.7157 20.7144 54.549 21.0112C54.4124 21.2549 54.2825 21.5021 54.1595 21.7525C54.1483 21.7809 54.1372 21.8093 54.1263 21.8377C53.9934 22.1854 53.809 22.7328 53.573 23.4802C53.457 23.849 53.35 24.2204 53.2523 24.5941C53.1159 25.1162 52.9936 25.6416 52.8854 26.1698C52.6832 27.1514 52.582 28.0872 52.582 28.9772C52.5809 29.3102 52.6057 29.6428 52.6561 29.9722C52.7263 30.4424 52.8648 30.9006 53.0674 31.3331C53.1721 31.5662 53.3311 31.7724 53.5321 31.9356C53.733 32.0987 53.9702 32.2142 54.225 32.2731ZM71.8631 32.6614C72.1833 32.7469 72.5142 32.7888 72.8463 32.7859C73.5744 32.7859 74.2216 32.5634 74.7878 32.1184C75.0057 31.9468 75.212 31.7619 75.4055 31.5647C75.7405 31.2212 76.0416 30.8479 76.3046 30.4496C76.5047 30.1503 76.6942 29.8444 76.8725 29.5324C77.0565 29.2113 77.2247 28.8819 77.3765 28.5453C77.4238 28.4403 77.4697 28.3347 77.514 28.2284C77.8319 27.4608 78.0769 26.6666 78.2461 25.8557C78.4484 24.9002 78.5495 23.9383 78.5495 22.9697C78.5495 22.263 78.4888 21.5628 78.3675 20.8691C78.3669 20.8663 78.3664 20.8636 78.3658 20.8608C78.2509 20.1907 78.0405 19.5393 77.7405 18.9255C77.6532 18.7422 77.5605 18.5614 77.4626 18.3832C77.2537 18.0029 77.0326 17.6608 76.7993 17.3569C76.5542 17.0327 76.273 16.7358 75.9608 16.4715C75.9353 16.4501 75.9095 16.4291 75.8836 16.4082C75.2342 15.8876 74.5724 15.6273 73.898 15.6273C73.8728 15.6273 73.8476 15.6275 73.8223 15.6281C73.0895 15.6268 72.3846 15.9009 71.8554 16.3929C71.5611 16.6669 71.2996 16.972 71.0755 17.3027C70.8451 17.6428 70.6459 18.0019 70.4802 18.3758C70.1161 19.1873 69.8532 20.038 69.6914 20.928C69.6228 21.3028 69.5675 21.6799 69.5256 22.0584C69.4756 22.5045 69.45 22.9529 69.4487 23.4016C69.4488 23.4277 69.4489 23.4537 69.4491 23.4798C69.4504 23.6568 69.457 23.8336 69.469 24.0102C69.4706 24.0347 69.4724 24.0592 69.4742 24.0837C69.487 24.2495 69.5055 24.4149 69.5296 24.5796C69.4218 24.8937 69.3139 25.2994 69.2061 25.7968C69.184 25.8984 69.1643 26.0005 69.147 26.103C69.0774 26.5211 69.0431 26.9439 69.0443 27.3674C69.0443 27.3968 69.0444 27.4263 69.0447 27.4557C69.0486 28.3115 69.1848 29.1619 69.4487 29.9784C69.5296 30.2277 69.628 30.4714 69.7432 30.7076C69.9746 31.1894 70.2926 31.6272 70.6824 32.0006C71.0122 32.3141 71.4184 32.5414 71.8631 32.6614ZM92.423 23.009C92.617 23.0089 92.811 23.0039 93.0047 22.9941C93.0333 22.9926 93.0618 22.991 93.0904 22.9894C93.2965 22.9774 93.5023 22.961 93.7077 22.9399C93.7379 22.9368 93.7681 22.9337 93.7983 22.9305C93.9061 21.8049 94.0679 20.6335 94.2836 19.4163C94.4521 18.4716 94.6519 17.5324 94.8827 16.6002C94.9628 16.2751 95.0463 15.9508 95.133 15.6273C94.444 15.9693 93.7771 16.3519 93.1361 16.773C92.4709 17.2133 91.8814 17.6749 91.3678 18.1579C91.2447 18.2735 91.1246 18.392 91.0074 18.5132C90.1375 19.4132 89.6369 20.2236 89.5055 20.9445C89.4825 21.0686 89.4707 21.1945 89.4704 21.3206C89.4685 21.5202 89.5123 21.7176 89.5986 21.8987C89.6849 22.0798 89.8116 22.24 89.9695 22.3678C90.0417 22.4295 90.1182 22.4863 90.1984 22.5378C90.3864 22.6561 90.5907 22.748 90.8051 22.8107C91.1937 22.9298 91.6696 22.9953 92.2329 23.007C92.2963 23.0084 92.3597 23.009 92.423 23.009ZM39.4365 15.588H39.5579C39.8486 15.588 40.0577 15.6461 40.1852 15.7623C40.1995 15.7754 40.2129 15.7893 40.2253 15.804C40.3237 15.9215 40.3845 16.0644 40.4004 16.2151C40.4051 16.2546 40.4074 16.2943 40.4073 16.334C40.4053 16.5163 40.3712 16.6969 40.3066 16.868C40.2203 17.1052 40.0786 17.3526 39.8815 17.6101C39.567 18.0208 39.2526 18.2474 38.9382 18.2898C38.9023 18.2947 38.8661 18.2972 38.8298 18.2973C38.748 18.2988 38.667 18.2817 38.5932 18.2474C38.5139 18.2089 38.4477 18.1486 38.3946 18.0664C38.3662 18.0215 38.3426 17.9738 38.3242 17.9242C38.303 17.8686 38.2829 17.8126 38.2639 17.7562C38.2116 17.5997 38.1845 17.4817 38.1826 17.4024C38.1826 17.3997 38.1826 17.3969 38.1826 17.3942C38.1839 17.0167 38.2892 16.6465 38.4876 16.3219C38.5128 16.2794 38.5393 16.2376 38.5669 16.1966C38.8231 15.8171 39.1129 15.6142 39.4365 15.588ZM57.5976 15.588H57.7189C58.0096 15.588 58.2187 15.6461 58.3462 15.7623C58.3605 15.7754 58.3739 15.7893 58.3863 15.804C58.4847 15.9215 58.5456 16.0644 58.5614 16.2151C58.5661 16.2546 58.5684 16.2943 58.5683 16.334C58.5663 16.5163 58.5323 16.6969 58.4676 16.868C58.3813 17.1052 58.2396 17.3526 58.0425 17.6101C57.7281 18.0208 57.4137 18.2474 57.0992 18.2898C57.0633 18.2947 57.0271 18.2972 56.9908 18.2973C56.909 18.2988 56.828 18.2817 56.7542 18.2474C56.6749 18.2089 56.6087 18.1486 56.5556 18.0664C56.5272 18.0215 56.5036 17.9738 56.4852 17.9242C56.464 17.8686 56.4439 17.8126 56.425 17.7562C56.3727 17.5997 56.3456 17.4817 56.3437 17.4024C56.3436 17.3997 56.3436 17.3969 56.3437 17.3942C56.345 17.0167 56.4503 16.6465 56.6487 16.3219C56.6739 16.2794 56.7003 16.2376 56.7279 16.1966C56.9841 15.8171 57.274 15.6142 57.5976 15.588ZM154.591 32.0398C154.667 32.0383 154.74 32.0142 154.801 31.9707C154.888 31.9129 154.973 31.8185 155.056 31.6876C155.085 31.6424 155.112 31.5962 155.137 31.549C155.219 31.3992 155.283 31.2414 155.33 31.0782C155.376 30.9183 155.4 30.7531 155.4 30.587C155.401 30.4937 155.39 30.4005 155.369 30.3094C155.357 30.2569 155.34 30.2053 155.319 30.1551C155.31 30.1324 155.3 30.1097 155.291 30.0872C155.26 30.0176 155.234 29.9685 155.214 29.94C155.21 29.9327 155.204 29.9258 155.198 29.9196C154.982 30.1813 154.787 30.4627 154.611 30.7637C154.556 30.8581 154.507 30.9558 154.465 31.0563C154.387 31.2413 154.349 31.4121 154.349 31.5687C154.349 31.8828 154.429 32.0398 154.591 32.0398Z" fill="white" stroke="white" stroke-width="0.944882" stroke-linecap="round"/>
</g>
<defs>
<clipPath id="clip0_57_18">
<rect width="159" height="47" fill="white"/>
</clipPath>
</defs>
</svg>
