<svg width="292" height="86" viewBox="0 0 292 86" fill="none" xmlns="http://www.w3.org/2000/svg">
<g clip-path="url(#clip0_27_5)">
<path fill-rule="evenodd" clip-rule="evenodd" d="M73.3409 85.5639C74.2413 85.8607 75.1872 86.0079 76.1384 85.9993C77.1205 85.9944 78.0969 85.8534 79.0376 85.5804C79.8973 85.3318 80.7299 85.0028 81.5238 84.5983C81.7502 84.4844 81.9726 84.3634 82.1908 84.2355C83.0569 83.7278 83.8978 83.0915 84.7134 82.3265C85.4539 81.6263 86.1383 80.8726 86.7606 80.072C88.3948 77.9885 89.7195 75.2584 90.7347 71.8816C91.369 69.7713 91.8053 67.3661 92.0435 64.6662C92.1905 62.9439 92.2619 61.2164 92.2574 59.4882C92.2564 58.4033 92.2279 57.3186 92.172 56.2351C92.0939 54.7301 91.9737 53.2275 91.8117 51.7289C91.6632 50.3878 91.5394 49.0347 91.4403 47.6696C91.3413 46.3045 91.2918 44.9275 91.2918 43.5385C91.2918 40.2336 91.5889 37.0005 92.1832 33.8393C92.1844 33.8355 92.1857 33.8317 92.1869 33.8278C92.222 33.7181 92.2441 33.5443 92.253 33.3062C92.256 33.2205 92.2575 33.1348 92.2574 33.049C92.2574 32.5221 92.1213 31.9474 91.8489 31.3247C91.8128 31.2417 91.7737 31.16 91.7315 31.0797C91.5998 30.8311 91.4604 30.6498 91.3133 30.5359C91.2038 30.4447 91.0648 30.3934 90.9204 30.3907C90.5242 30.3907 90.1528 30.738 89.8062 31.4325C89.5353 31.9752 89.2493 33.0806 88.9482 34.7489C88.8567 35.259 88.7713 35.7701 88.6919 36.2821C88.664 36.4622 88.6345 36.642 88.6035 36.8216C88.4485 37.7187 88.218 38.868 87.912 40.2695C87.5406 41.9699 87.0949 43.7899 86.5749 45.7298C86.4463 46.2096 86.3116 46.6879 86.1708 47.1645C85.7678 48.5357 85.3078 49.8906 84.7922 51.226C84.6747 51.5293 84.5519 51.8306 84.4237 52.1298C83.8577 53.4508 83.2501 54.5625 82.6009 55.4649C81.8417 56.5205 81.0595 57.0483 80.2543 57.0483C80.2194 57.0484 80.1844 57.0474 80.1496 57.0455C79.8585 57.0284 79.5796 56.9259 79.3503 56.7516C79.0497 56.5246 78.8085 56.1675 78.6268 55.6804C78.53 55.4183 78.4506 55.1505 78.3891 54.8786C78.3044 54.5098 78.2418 54.1082 78.2012 53.6738C78.1619 53.2421 78.1428 52.8089 78.144 52.3755C78.144 50.9386 78.3049 49.358 78.6268 47.6337C78.6468 47.5261 78.6674 47.4185 78.6885 47.3111C78.9924 45.7491 79.4188 44.2117 79.9639 42.7123C80.5334 41.1556 81.1771 39.8863 81.8952 38.9044C82.0543 38.6845 82.2298 38.476 82.4204 38.2808C82.6343 38.0643 82.8512 37.889 83.0711 37.7549C83.3948 37.5485 83.773 37.4363 84.1608 37.4316C84.2262 37.4314 84.2915 37.4362 84.3561 37.446C84.4963 37.467 84.6169 37.5128 84.7179 37.5832C84.8316 37.6645 84.9212 37.7733 84.9779 37.8986C85.1264 38.2099 85.2874 38.5213 85.4607 38.8326C85.5633 39.0242 85.7286 39.1776 85.9309 39.2687C86.0526 39.3221 86.1821 39.3568 86.3149 39.3714C86.4426 39.3749 86.5696 39.3518 86.6873 39.3038C86.8051 39.2559 86.9109 39.1841 86.9976 39.0934C87.0816 39.0048 87.1519 38.9048 87.2063 38.7967C87.3211 38.5707 87.4019 38.3299 87.4462 38.0818C87.4853 37.8672 87.5044 37.6496 87.5034 37.4316C87.5035 37.1482 87.4703 36.8657 87.4046 36.5896C87.3079 36.1926 87.1536 35.8109 86.9463 35.4558C86.8343 35.2487 86.6809 35.0652 86.495 34.9158C86.309 34.7665 86.0944 34.6543 85.8633 34.5858C85.6243 34.5169 85.3758 34.4832 85.1264 34.4859C83.9379 34.4859 82.7618 35.1445 81.5981 36.4617C81.5152 36.5553 81.4335 36.6499 81.3529 36.7455C80.7884 37.417 80.2508 38.1695 79.7403 39.0029C79.2636 39.7856 78.8299 40.5921 78.4411 41.419C77.5002 43.4068 76.7574 45.4544 76.2127 47.5618C75.8725 48.879 75.6385 50.0839 75.5107 51.1764C75.4366 51.7891 75.3982 52.4053 75.3956 53.0221C75.3954 53.1062 75.3959 53.1902 75.397 53.2743C75.4149 54.4827 75.5617 55.502 75.8375 56.332C75.9829 56.7892 76.1969 57.2232 76.4726 57.6202C76.6494 57.8716 76.8525 58.1047 77.0788 58.3157C77.3452 58.574 77.6618 58.7788 78.0103 58.9183C78.3588 59.0579 78.7324 59.1295 79.1096 59.129C80.0534 59.1404 80.9716 58.8321 81.705 58.2575C82.1206 57.93 82.4849 57.5459 82.7866 57.1173C83.31 56.3851 83.7858 55.622 84.2113 54.8326C84.6563 54.0086 85.0608 53.1646 85.4235 52.3037C86.2159 50.4357 86.8968 48.4599 87.4663 46.3764C87.8223 45.0741 88.1155 43.8889 88.3458 42.8207C88.4752 42.2244 88.5906 41.6253 88.6919 41.0239C88.7062 42.0211 88.7397 43.0181 88.7922 44.0141C88.9375 46.6912 89.2014 49.3611 89.5833 52.0163C89.5855 52.0309 89.5878 52.0455 89.59 52.0601C90.1798 55.7788 90.4747 59.1649 90.4747 62.2184C90.4819 63.9296 90.3487 65.6386 90.0765 67.3295C89.7656 69.2908 89.2006 71.2064 88.3948 73.0311C87.5711 74.835 86.4647 76.5052 85.1145 77.9827C83.9499 79.2631 82.6603 80.4319 81.2638 81.473C79.9267 82.4789 78.6887 83.2093 77.5497 83.6643C77.2806 83.7723 77.0075 83.871 76.7311 83.9603C76.3459 84.0844 75.9799 84.1785 75.6333 84.2427C75.2859 84.3095 74.9327 84.3444 74.5785 84.3468C74.3122 84.3484 74.0462 84.3275 73.7837 84.2843C72.3327 84.0357 71.6072 83.0507 71.6072 81.3293C71.6076 81.1175 71.6207 80.9059 71.6466 80.6956C71.6966 80.2813 71.7947 79.8471 71.9407 79.3931C72.0852 78.9504 72.2591 78.5172 72.4615 78.0963C72.6238 77.7551 72.7937 77.4173 72.971 77.0832C73.4491 76.1867 73.9732 75.3139 74.5413 74.4681C74.5675 74.4287 74.5938 74.3895 74.6201 74.3502C75.4084 73.1782 76.1621 72.1517 76.8812 71.2709C77.0107 71.1098 77.1419 70.9501 77.2749 70.7917C78.51 69.3106 79.91 67.9654 81.4495 66.7806C81.5604 66.6956 81.6721 66.6115 81.7845 66.5284C82.5778 65.9421 83.4489 65.3688 84.3977 64.8084C85.4083 64.2143 86.4445 63.6618 87.5034 63.1524C87.9694 62.8952 88.2787 62.6485 88.4312 62.4123C88.501 62.3124 88.5399 62.1953 88.5434 62.0747C88.5433 62.0682 88.5431 62.0617 88.5426 62.0553C88.5342 61.9245 88.4354 61.8591 88.2462 61.8591C88.2076 61.8595 88.169 61.8634 88.1311 61.8706C87.9905 61.896 87.806 61.964 87.5777 62.0747C87.4297 62.1461 87.2816 62.2175 87.1335 62.2888C86.1322 62.772 85.1289 63.2515 84.1236 63.7271C83.0094 64.254 81.9571 64.8527 80.9667 65.5233C78.1068 67.2835 75.7907 69.0025 74.0184 70.6804C73.1616 71.4794 72.3795 72.3502 71.6815 73.2826C71.6459 73.3311 71.6105 73.3797 71.5753 73.4285C69.8138 75.8583 68.9331 77.989 68.9331 79.8206C68.933 79.9927 68.9391 80.1647 68.9517 80.3364C68.9912 81.1047 69.1987 81.8562 69.5604 82.5412C69.9221 83.2263 70.4298 83.8295 71.0501 84.3109C71.7305 84.8571 72.5063 85.2815 73.3409 85.5639ZM1.24421 65.7869C1.4669 65.8524 1.69859 65.8846 1.93131 65.8825C1.95757 65.8824 1.98382 65.882 2.01005 65.8811C2.88014 65.8538 3.83193 65.3753 4.86543 64.4456C5.30039 64.0449 5.66515 63.5785 5.94548 63.0647C6.20249 62.6068 6.42583 62.0857 6.6155 61.5013C6.80311 60.9121 6.9505 60.3117 7.05673 59.7038C8.69736 59.0754 10.2023 58.4934 11.5715 57.9579C12.3454 57.6558 13.1184 57.3516 13.8906 57.0455C14.4262 56.833 14.9645 56.627 15.5055 56.4276C16.8199 55.9412 18.1519 55.5002 19.4989 55.1056C20.2542 54.8863 21.0175 54.6939 21.7875 54.5287C22.995 54.271 24.2143 54.0679 25.4414 53.9202C25.9689 53.856 26.4976 53.8014 27.0273 53.7564C28.8323 53.6021 30.8911 53.525 33.2038 53.525C34.9865 53.525 36.6207 53.7525 38.1063 54.2076C39.1086 54.5162 39.9744 55.142 40.5643 55.9843C40.896 56.4481 41.1682 56.9492 41.3747 57.4765C41.7214 58.3387 42.0185 58.7698 42.2661 58.7698C42.3025 58.7695 42.3376 58.7565 42.3649 58.7331C42.5466 58.5866 42.6375 58.0001 42.6375 56.9736C42.6376 56.8147 42.6309 56.6557 42.6174 56.4973C42.5812 55.9056 42.4151 55.3282 42.1304 54.8034C41.8457 54.2786 41.4489 53.8183 40.9662 53.4532C40.5083 53.0995 40.0191 52.7855 39.5043 52.5149C38.7083 52.1001 37.8653 51.7761 36.9921 51.5493C36.7741 51.4913 36.5552 51.4364 36.3355 51.3848C35.7155 51.2396 35.1257 51.1299 34.5661 51.0557C34.0163 50.9802 33.4619 50.9411 32.9066 50.9386C28.4498 50.9386 23.9929 51.4415 19.536 52.4473C15.0791 53.4532 10.9441 55.0817 7.13101 57.3329C7.62622 54.8901 8.29475 52.5431 9.13661 50.292C9.97846 48.0408 10.8946 45.7896 11.885 43.5385C12.3802 43.7301 12.9002 43.8618 13.4449 43.9336C13.9897 44.0055 14.5344 44.0414 15.0791 44.0414C15.8901 44.0412 16.7003 43.9925 17.5051 43.8956C19.4823 43.6494 21.4152 43.1425 23.2501 42.389C25.9737 41.2873 28.5983 39.7905 31.1239 37.8986C33.6495 36.0067 35.9769 33.8992 38.1063 31.5762C38.2721 31.3951 38.4368 31.2131 38.6003 31.0302C40.475 28.9447 42.1846 26.7255 43.7146 24.3916C44.394 23.3538 45.0299 22.2898 45.6206 21.2024C46.3193 19.9205 46.9355 18.5982 47.4658 17.243C47.9813 15.9138 48.3477 14.6728 48.5651 13.5199C48.7183 12.7338 48.7978 11.936 48.8028 11.1361C48.8029 11.0379 48.8015 10.9397 48.7984 10.8415C48.7791 10.2485 48.7013 9.70132 48.5651 9.19984C48.3703 8.44209 47.9937 7.73938 47.4658 7.14865C47.1116 6.76268 46.6793 6.45114 46.1956 6.23333C45.3889 5.86165 44.3762 5.67581 43.1575 5.67581C42.1713 5.67584 41.188 5.77919 40.2248 5.98403C38.7545 6.30414 37.3402 6.82958 36.0265 7.5438C34.9819 8.10505 33.9779 8.73393 33.021 9.42615C31.702 10.3832 30.4594 11.4351 29.304 12.573C28.8977 12.9706 28.4978 13.3742 28.1043 13.7836C26.3388 15.6269 24.6928 17.5741 23.1758 19.6139C21.2445 22.2003 19.4617 24.8466 17.8275 27.5528C16.1933 30.259 14.7325 32.8215 13.4449 35.2403C13.0602 35.9625 12.6797 36.6867 12.3032 37.4129C11.9442 38.106 11.6072 38.7672 11.2922 39.3966C10.9377 40.1032 10.5905 40.8133 10.2508 41.5268C10.1957 41.4985 10.1412 41.469 10.0874 41.4384C9.64766 41.1889 9.24332 40.8582 8.87439 40.4462C8.57966 40.1133 8.31919 39.7533 8.09667 39.3714C7.92536 39.0831 7.77471 38.7838 7.64578 38.4755C7.35908 37.8023 7.20951 37.082 7.20529 36.3539V34.8452C7.20529 34.518 7.15924 34.2654 7.06713 34.0872C7.02224 33.9885 6.94761 33.9052 6.85299 33.8481C6.75836 33.7911 6.64816 33.763 6.53676 33.7675C6.50014 33.7674 6.46367 33.772 6.42831 33.7811C6.19903 33.841 6.01902 34.0972 5.88828 34.5499C5.85043 34.6827 5.81896 34.8172 5.79395 34.9529C5.79146 34.9661 5.78898 34.9793 5.78652 34.9924C5.64291 35.7621 5.5711 36.3118 5.5711 36.6413C5.57032 37.2987 5.67558 37.9522 5.88308 38.5783C6.12711 39.299 6.48546 39.9786 6.94531 40.5928C6.97983 40.6398 7.01474 40.6865 7.05004 40.7329C7.57397 41.4212 8.10187 41.9378 8.63372 42.2826C8.96509 42.5046 9.33761 42.6626 9.73086 42.7482C8.83948 44.6641 7.9481 46.7117 7.05673 48.891C6.16535 51.0703 5.54634 53.2137 5.19969 55.3212C5.10065 55.9438 4.98923 56.5186 4.86543 57.0455C4.79891 57.3259 4.72086 57.6037 4.63144 57.8782C4.53354 58.1786 4.42578 58.476 4.30832 58.7698C4.24325 58.8165 4.17838 58.8634 4.1137 58.9106C3.18271 59.5898 2.41934 60.2321 1.82361 60.8375C1.527 61.1348 1.2527 61.4522 1.0028 61.7873C0.57989 62.363 0.290688 62.8911 0.135192 63.3715C0.0491941 63.6256 0.00360992 63.8909 3.34264e-09 64.1582C-3.63973e-06 64.2225 0.0029706 64.2867 0.00891376 64.3507C0.0224326 64.5546 0.0778842 64.7537 0.172018 64.9366C0.266152 65.1194 0.397074 65.2822 0.55711 65.4155C0.75698 65.5841 0.990987 65.7106 1.24421 65.7869ZM179.501 70.4088C179.554 70.458 179.607 70.5068 179.66 70.5553C181.816 72.5172 184.078 73.4981 186.446 73.4981C187.585 73.4981 188.675 73.2826 189.715 72.8515C189.767 72.8332 189.818 72.8124 189.868 72.789C190.165 72.6506 190.362 72.442 190.46 72.1632C190.51 72.0143 190.534 71.8585 190.532 71.702C190.532 71.1794 190.388 70.8468 190.099 70.7041C189.979 70.6482 189.848 70.6209 189.715 70.6243C189.544 70.6243 189.386 70.6808 189.239 70.7939C189.168 70.8499 189.103 70.9136 189.046 70.9835C188.856 71.167 188.522 71.2803 188.042 71.3234C187.882 71.337 187.721 71.3434 187.56 71.3428C187.489 71.3428 187.417 71.3411 187.346 71.3377C186.728 71.3085 185.997 71.1562 185.154 70.8808C184.724 70.7393 184.3 70.5819 183.883 70.4088C183.619 70.2997 183.36 70.1796 183.107 70.0488C182.446 69.7078 181.784 69.2794 181.122 68.7635C180.497 68.2722 179.906 67.7418 179.352 67.1757C177.842 65.643 176.579 63.5236 175.564 60.8174C175.267 60.017 175.022 59.1995 174.83 58.3696C174.567 57.2469 174.369 56.0293 174.238 54.717C174.103 53.3177 174.037 51.9129 174.041 50.5075C174.041 49.358 174.091 48.1366 174.19 46.8434C174.289 45.5502 174.437 44.209 174.635 42.82C179.736 42.1974 184.552 40.9401 189.083 39.0481C189.786 38.7548 190.483 38.4494 191.174 38.1321C194.767 36.4977 198.174 34.5052 201.34 32.1869C202.872 31.0617 204.35 29.8685 205.768 28.6111C207.44 27.1341 209.001 25.544 210.439 23.8528C211.157 22.9998 211.821 22.1053 212.428 21.1744C213.129 20.0866 213.677 19.0293 214.07 18.0024C214.551 16.7967 214.805 15.5177 214.822 14.2254C214.844 12.7489 214.375 11.3044 213.483 10.1058C212.924 9.36917 212.247 8.72272 211.479 8.19041C211.282 8.0512 211.08 7.92009 210.871 7.79741C209.327 6.88497 207.289 6.28817 204.755 6.00702C203.535 5.87715 202.307 5.81454 201.08 5.8195C200.593 5.81979 200.106 5.83033 199.62 5.85111C198.78 5.88758 197.942 5.94892 197.106 6.03504C196.563 6.09032 196.022 6.15092 195.481 6.21681C194.523 6.334 193.566 6.46501 192.612 6.6098C191.473 6.75349 190.631 6.84929 190.086 6.89719C189.746 6.92736 189.434 6.94796 189.152 6.95897C188.993 6.96547 188.834 6.96883 188.675 6.96903C188.599 6.9691 188.524 6.97125 188.448 6.9755C188.186 6.99035 187.867 7.02866 187.491 7.09045C187.315 7.11936 187.14 7.15074 186.966 7.18457C187.362 6.41821 187.758 5.63989 188.155 4.84958C188.551 4.05928 188.947 3.28095 189.343 2.5146C189.492 2.13142 189.566 1.82009 189.566 1.58061C189.566 1.5401 189.565 1.49961 189.562 1.45919C189.555 1.26248 189.505 1.06942 189.416 0.892369C189.328 0.715319 189.201 0.558196 189.046 0.431074C188.699 0.143691 188.303 0 187.858 0C187.833 6.27824e-05 187.807 0.000541825 187.783 0.00143691C187.355 0.0153271 186.996 0.152073 186.705 0.411676C186.54 0.562678 186.403 0.739198 186.298 0.933994C185.291 2.70156 184.323 4.48923 183.393 6.29584C181.97 9.05575 180.659 11.8688 179.464 14.7284C178.78 16.3712 178.129 18.0268 177.512 19.6943C176.582 22.1998 175.746 24.7371 175.007 27.3014C173.974 27.7359 172.959 28.2073 171.962 28.7146C170.52 29.4455 169.13 30.2695 167.802 31.181C167.354 31.49 166.913 31.8088 166.48 32.1373C165.784 32.6666 165.151 33.1925 164.581 33.715C163.995 34.248 163.446 34.8175 162.936 35.4199C162.632 35.7794 162.353 36.1577 162.1 36.5522C161.835 36.9689 161.628 37.3741 161.479 37.7678C161.294 38.2342 161.197 38.7285 161.191 39.2277C161.191 40.054 161.529 40.7688 162.207 41.3723C162.498 41.6258 162.817 41.8464 163.159 42.0297C163.377 42.148 163.603 42.2522 163.835 42.3415C164.722 42.6864 165.862 42.9149 167.255 43.0269C167.98 43.0828 168.708 43.1096 169.436 43.1074H170.736C170.75 43.1074 170.765 43.1074 170.779 43.1074C171.249 43.1053 171.717 43.0813 172.184 43.0356C172.178 43.1309 172.172 43.2262 172.166 43.3215C172.127 43.9682 172.095 44.6153 172.073 45.2628C172.07 45.3521 172.067 45.4414 172.064 45.5308C172.045 46.1358 172.036 46.741 172.036 47.3463C172.036 50.4448 172.255 53.2894 172.694 55.8801C173.005 57.7767 173.48 59.6446 174.115 61.464C175.502 65.3676 177.297 68.3492 179.501 70.4088ZM110.456 53.1658V53.094H110.531C110.63 52.5192 110.815 51.9684 111.088 51.4415C111.36 50.9146 111.645 50.4117 111.942 49.9328C113.239 47.4429 114.8 45.0906 116.602 42.9141C116.947 42.4936 117.301 42.079 117.662 41.6705C118.479 40.772 119.359 39.9275 120.293 39.143C120.598 38.8883 120.91 38.6411 121.227 38.4015C122.465 37.4675 123.753 37.0005 125.09 37.0005C125.352 36.9984 125.612 37.036 125.862 37.1119C126.092 37.1832 126.308 37.2912 126.501 37.4316C126.673 37.5605 126.807 37.7303 126.891 37.9245C127.016 38.1965 127.084 38.5452 127.094 38.9705C127.095 39.0084 127.095 39.0462 127.095 39.0841C127.092 39.5276 127.036 39.9693 126.931 40.401C126.835 40.8105 126.697 41.2409 126.516 41.6921C126.367 42.0629 126.201 42.4273 126.018 42.7841C125.3 44.1971 124.434 45.6579 123.418 47.1667C122.403 48.6755 121.475 50.1004 120.633 51.4415C119.494 53.3095 118.466 55.2853 117.55 57.3688C116.634 59.4523 116.176 61.6197 116.176 63.8708C116.177 64.2982 116.2 64.7252 116.245 65.1504C116.276 65.4433 116.315 65.7353 116.362 66.0262C116.415 66.367 116.495 66.7035 116.601 67.0327C116.709 67.3694 116.853 67.6943 117.03 68.0019C117.125 68.1682 117.245 68.3196 117.386 68.451C117.661 68.7016 118.027 68.8372 118.404 68.8282C118.744 68.827 119.078 68.7482 119.381 68.5983C119.44 68.5693 119.499 68.5381 119.556 68.5049C119.927 68.2893 120.237 68.0858 120.484 67.8942C120.561 67.8195 120.639 67.7462 120.719 67.6743C121.035 67.3913 121.253 67.249 121.374 67.2476C121.375 67.2476 121.375 67.2476 121.376 67.2476C121.406 67.2472 121.435 67.2508 121.464 67.2583C121.53 67.2765 121.572 67.3182 121.589 67.3834C121.596 67.4094 121.599 67.4362 121.599 67.4631C121.597 67.6515 121.545 67.8362 121.447 67.9991C121.385 68.1035 121.312 68.2009 121.227 68.2893C121.125 68.3987 121.017 68.5026 120.903 68.6004C120.785 68.701 120.667 68.7877 120.55 68.8605C120.528 68.874 120.506 68.8872 120.484 68.9C120.199 69.1366 119.838 69.3569 119.402 69.561C119.306 69.606 119.208 69.6491 119.11 69.6903C118.81 69.8185 118.496 69.9151 118.174 69.9784C117.932 70.0254 117.686 70.0492 117.439 70.0495C117.058 70.0543 116.68 69.9948 116.321 69.8735C115.723 69.6637 115.241 69.2674 114.876 68.6845C114.434 67.9697 114.158 67.1701 114.069 66.3416C114.037 66.0699 114.021 65.7967 114.022 65.5233C114.025 64.8526 114.08 64.1831 114.185 63.5202C114.288 62.853 114.44 62.1513 114.64 61.4151C114.714 61.1428 114.793 60.8716 114.876 60.6018C115.446 58.7578 116.151 56.8659 116.993 54.926C117.835 52.9862 118.714 51.1062 119.63 49.2861C120.038 48.4752 120.446 47.6641 120.853 46.8527C121.291 45.9815 121.7 45.1641 122.081 44.4006C122.799 42.9637 123.282 41.8621 123.53 41.0957C123.827 40.2336 123.976 39.587 123.976 39.1559C123.976 39.0712 123.969 38.9866 123.956 38.903C123.903 38.6032 123.746 38.4482 123.484 38.4382C123.474 38.4377 123.465 38.4375 123.456 38.4374C123.059 38.4374 122.478 38.7368 121.71 39.3355C120.942 39.9342 120.2 40.5928 119.482 41.3113C118.763 42.0297 118.256 42.5566 117.959 42.8919C116.374 44.6162 114.95 46.5321 113.688 48.6395C112.432 50.7355 111.654 52.5235 111.353 54.0035C111.351 54.0117 111.349 54.0198 111.348 54.028C111.334 54.0971 111.319 54.1664 111.305 54.2356C111.266 54.4286 111.215 54.6861 111.15 55.0079C111.129 55.1123 111.109 55.2168 111.088 55.3212C110.973 55.8993 110.762 56.1884 110.455 56.1884C110.431 56.1884 110.406 56.1867 110.382 56.1833C110.152 56.1431 109.938 56.0416 109.764 55.8902C109.632 55.7733 109.525 55.6246 109.442 55.444C109.419 55.3921 109.398 55.3391 109.379 55.2853C109.206 54.7823 109.095 54.3153 109.045 53.8843C109.045 53.7018 109.038 53.5195 109.025 53.3375C109.02 53.2682 109.014 53.199 109.008 53.1299C108.983 52.8664 108.971 52.591 108.971 52.3037C108.971 50.1516 109.2 47.7376 109.658 45.0616C109.7 44.8171 109.743 44.5728 109.788 44.3288C110.333 41.3592 111.038 38.3177 111.905 35.2044C112.425 33.3301 112.991 31.4681 113.602 29.6198C113.948 28.578 114.31 27.5416 114.69 26.5111C115.439 24.4836 116.159 22.7162 116.851 21.2088C117.064 20.7454 117.284 20.2855 117.513 19.8294C117.959 18.9673 118.454 18.141 118.999 17.3507C119.116 17.1794 119.244 17.0155 119.382 16.86C119.693 16.5147 120.004 16.2982 120.315 16.2105C120.418 16.1809 120.525 16.1656 120.633 16.1653C120.98 16.1653 121.289 16.3329 121.561 16.6682C121.8 16.9613 121.934 17.2178 121.963 17.4377C121.968 17.4684 121.97 17.4993 121.97 17.5303C121.97 17.7219 121.636 18.4763 120.967 19.7935C120.299 21.1107 119.444 22.835 118.404 24.9664C117.367 27.0935 116.316 29.519 115.253 32.2429C115.251 32.2482 115.249 32.2534 115.248 32.2587C114.431 34.3617 113.701 36.4952 113.061 38.6544C112.826 39.4415 112.602 40.2314 112.388 41.0239C111.546 44.1372 110.976 47.2984 110.679 50.5075C110.679 50.5166 110.678 50.5257 110.678 50.5348C110.673 50.6186 110.648 50.849 110.605 51.226C110.555 51.6571 110.518 52.0881 110.493 52.5192L110.456 53.1658ZM233.615 58.4105C232.971 58.4105 232.402 58.0154 231.906 57.2251C231.759 56.9785 231.644 56.7149 231.564 56.4405C231.297 55.5755 231.164 54.3163 231.164 52.6629C231.164 50.8907 231.312 48.9389 231.609 46.8075C231.906 44.676 232.241 42.5566 232.612 40.4491C232.777 39.5112 232.943 38.5734 233.11 37.6356C233.266 36.7548 233.415 35.9233 233.555 35.1412C233.575 35.0305 233.595 34.9199 233.615 34.8092C233.839 33.5634 233.978 32.5696 234.034 31.8276C234.051 31.6125 234.06 31.3968 234.061 31.181C234.061 30.2925 233.876 29.6984 233.506 29.3985C233.307 29.2418 233.055 29.1604 232.798 29.1693C232.395 29.1737 231.999 29.2658 231.638 29.4388C231.372 29.5614 231.105 29.7259 230.837 29.9323C230.679 30.0539 230.528 30.1829 230.384 30.3189C229.566 31.0852 228.799 32.0192 228.081 33.1209C227.363 34.2225 226.744 35.2882 226.224 36.318C225.832 37.0944 225.545 37.7142 225.364 38.1774C225.312 38.3103 225.264 38.445 225.221 38.5811C224.607 40.2225 224.14 41.9118 223.825 43.6304C223.793 43.8031 223.763 43.976 223.735 44.1492C223.438 45.9932 223.29 47.8971 223.29 49.8609C223.291 50.6462 223.323 51.4311 223.388 52.2139C223.392 52.2677 223.397 52.3216 223.401 52.3755C223.475 53.2377 223.537 54.1237 223.587 55.0338C223.686 55.5128 223.55 56.0995 223.178 56.794C222.845 57.4176 222.462 57.7613 222.028 57.825C221.979 57.8322 221.929 57.8359 221.878 57.8358C221.59 57.8358 221.335 57.6866 221.116 57.3882C221.069 57.3242 221.026 57.2578 220.987 57.1892C220.899 57.037 220.817 56.8819 220.74 56.7243C220.665 56.5701 220.601 56.423 220.549 56.2832C220.519 56.2029 220.491 56.1217 220.467 56.0396C220.296 55.5393 220.163 55.0273 220.071 54.5079C220.053 54.408 220.037 54.3079 220.021 54.2076C219.946 53.7123 219.87 53.2664 219.794 52.8698C219.772 52.7528 219.748 52.6359 219.724 52.5192C219.378 50.5554 219.056 48.5557 218.759 46.5201C218.461 44.4845 218.04 42.5087 217.496 40.5928C217.408 40.2829 217.313 39.9751 217.21 39.6696C217.124 39.4132 217.033 39.1581 216.939 38.9044C216.816 38.5692 216.646 38.2524 216.432 37.9633C216.287 37.7691 216.121 37.5908 215.936 37.4316C215.902 37.3988 215.866 37.3676 215.828 37.3382C215.739 37.2673 215.626 37.1907 215.49 37.1083C215.451 37.0848 215.413 37.0597 215.377 37.0329C215.254 36.9428 215.193 36.8602 215.193 36.785C215.193 36.6083 215.425 36.5129 215.888 36.499C215.928 36.498 215.969 36.4975 216.01 36.4976C216.502 36.4976 216.995 36.6947 217.487 37.0889C217.593 37.1745 217.695 37.2649 217.793 37.3598C218.083 37.6431 218.347 37.9498 218.583 38.2765C218.879 38.6817 219.16 39.1425 219.427 39.6588C220.03 40.8787 220.535 42.1411 220.94 43.435C220.943 43.4456 220.947 43.4561 220.95 43.4666C221.326 44.6665 221.634 45.6553 221.872 46.4331C221.899 46.522 221.926 46.6108 221.953 46.6997C222.084 45.9313 222.229 45.1651 222.386 44.4014C222.557 43.5809 222.734 42.8143 222.918 42.1016C223.059 41.6365 223.206 41.1733 223.36 40.7121C223.498 40.2997 223.648 39.865 223.809 39.4081C223.979 38.9277 224.152 38.4484 224.33 37.9704C224.924 36.3659 225.667 34.7853 226.558 33.2286C227.061 32.3419 227.654 31.5062 228.329 30.7341C228.766 30.2377 229.242 29.7746 229.752 29.349C230.99 28.3192 232.426 27.8043 234.061 27.8043C234.576 27.7948 235.089 27.8744 235.576 28.0392C236.943 28.5311 237.626 29.7939 237.626 31.8276C237.626 33.1731 237.394 34.6423 236.929 36.2354C236.914 36.2869 236.899 36.3384 236.883 36.3898C236.595 37.3562 236.279 38.3148 235.937 39.2644C235.732 39.8311 235.515 40.3938 235.286 40.952C235.159 41.2629 235.032 41.574 234.905 41.8853C234.542 42.7796 234.285 43.4264 234.135 43.8259C234.05 44.0569 233.972 44.29 233.899 44.5249C233.735 45.0513 233.566 45.6764 233.392 46.4001C233.38 46.452 233.367 46.504 233.355 46.556C233.082 47.7055 232.86 48.903 232.686 50.1483C232.513 51.3936 232.426 52.5431 232.426 53.5969C232.426 54.2818 232.489 54.8786 232.616 55.3873C232.655 55.5473 232.703 55.7051 232.761 55.86C232.81 55.9954 232.873 56.1254 232.95 56.248C233.041 56.3888 233.144 56.5004 233.261 56.5828C233.429 56.7002 233.631 56.7617 233.838 56.7581C234.174 56.7567 234.501 56.6484 234.768 56.4499C234.919 56.341 235.055 56.2153 235.175 56.0756C235.34 55.8864 235.501 55.6943 235.659 55.4994C235.804 55.3202 235.937 55.1478 236.059 54.9821C236.099 54.9278 236.138 54.8732 236.178 54.8183C236.202 54.7839 236.227 54.7498 236.253 54.7162C236.475 54.4241 236.586 54.3862 236.586 54.6027C236.685 55.3212 236.425 56.1354 235.806 57.0455C235.647 57.2833 235.463 57.5046 235.257 57.7057C235.005 57.9476 234.738 58.1272 234.455 58.2446C234.19 58.355 233.904 58.4115 233.615 58.4105ZM254.859 58.4105C254.216 58.4105 253.646 58.0154 253.151 57.2251C253.003 56.9785 252.888 56.7149 252.808 56.4405C252.541 55.5755 252.408 54.3163 252.408 52.6629C252.408 50.8907 252.557 48.9389 252.854 46.8075C253.151 44.676 253.485 42.5566 253.857 40.4491C254.022 39.5112 254.188 38.5734 254.354 37.6356C254.511 36.7548 254.659 35.9233 254.8 35.1412C254.82 35.0305 254.839 34.9199 254.859 34.8092C255.083 33.5634 255.223 32.5696 255.278 31.8276C255.295 31.6125 255.304 31.3968 255.305 31.181C255.305 30.2925 255.12 29.6984 254.751 29.3985C254.551 29.2418 254.299 29.1604 254.042 29.1693C253.64 29.1737 253.243 29.2658 252.883 29.4388C252.617 29.5614 252.35 29.7259 252.081 29.9323C251.924 30.0539 251.772 30.1829 251.628 30.3189C250.811 31.0852 250.043 32.0192 249.325 33.1209C248.607 34.2225 247.988 35.2882 247.468 36.318C247.076 37.0944 246.79 37.7142 246.609 38.1774C246.556 38.3103 246.508 38.445 246.465 38.5811C245.852 40.2225 245.384 41.9118 245.069 43.6304C245.038 43.8031 245.008 43.976 244.98 44.1492C244.683 45.9932 244.534 47.8971 244.534 49.8609C244.535 50.6462 244.568 51.4311 244.632 52.2139C244.637 52.2677 244.641 52.3216 244.646 52.3755C244.72 53.2377 244.782 54.1237 244.831 55.0338C244.93 55.5128 244.794 56.0995 244.423 56.794C244.089 57.4176 243.706 57.7613 243.273 57.825C243.223 57.8322 243.173 57.8359 243.123 57.8358C242.834 57.8358 242.58 57.6866 242.36 57.3882C242.313 57.3242 242.27 57.2578 242.231 57.1892C242.144 57.037 242.061 56.8819 241.984 56.7243C241.909 56.5701 241.846 56.423 241.793 56.2832C241.763 56.2029 241.736 56.1217 241.712 56.0396C241.54 55.5393 241.408 55.0273 241.316 54.5079C241.298 54.408 241.281 54.3079 241.266 54.2076C241.19 53.7123 241.114 53.2664 241.038 52.8698C241.016 52.7528 240.993 52.6359 240.969 52.5192C240.622 50.5554 240.3 48.5557 240.003 46.5201C239.706 44.4845 239.285 42.5087 238.74 40.5928C238.652 40.2829 238.557 39.9751 238.454 39.6696C238.368 39.4132 238.278 39.1581 238.183 38.9044C238.061 38.5692 237.89 38.2524 237.677 37.9633C237.532 37.7691 237.365 37.5908 237.18 37.4316C237.146 37.3988 237.11 37.3676 237.073 37.3382C236.983 37.2673 236.871 37.1907 236.735 37.1083C236.696 37.0848 236.658 37.0597 236.621 37.0329C236.499 36.9428 236.438 36.8602 236.438 36.785C236.438 36.6083 236.669 36.5129 237.132 36.499C237.173 36.498 237.214 36.4975 237.255 36.4976C237.747 36.4976 238.239 36.6947 238.731 37.0889C238.838 37.1745 238.94 37.2649 239.037 37.3598C239.327 37.6431 239.592 37.9498 239.828 38.2765C240.123 38.6817 240.405 39.1425 240.672 39.6588C241.274 40.8787 241.78 42.1411 242.185 43.435C242.188 43.4456 242.191 43.4561 242.194 43.4666C242.571 44.6665 242.878 45.6553 243.116 46.4331C243.143 46.522 243.17 46.6108 243.197 46.6997C243.329 45.9313 243.473 45.1651 243.631 44.4014C243.801 43.5809 243.979 42.8143 244.163 42.1016C244.303 41.6365 244.451 41.1733 244.605 40.7121C244.742 40.2997 244.892 39.865 245.053 39.4081C245.223 38.9277 245.397 38.4484 245.574 37.9704C246.168 36.3659 246.911 34.7853 247.803 33.2286C248.305 32.3419 248.898 31.5062 249.573 30.7341C250.01 30.2377 250.486 29.7746 250.997 29.349C252.235 28.3192 253.671 27.8043 255.305 27.8043C255.821 27.7948 256.334 27.8744 256.82 28.0392C258.187 28.5311 258.87 29.7939 258.87 31.8276C258.87 33.1731 258.638 34.6423 258.174 36.2354C258.159 36.2869 258.143 36.3384 258.128 36.3898C257.839 37.3562 257.524 38.3148 257.181 39.2644C256.976 39.8311 256.759 40.3938 256.531 40.952C256.403 41.2629 256.276 41.574 256.15 41.8853C255.786 42.7796 255.529 43.4264 255.379 43.8259C255.295 44.0569 255.216 44.29 255.144 44.5249C254.98 45.0513 254.811 45.6764 254.636 46.4001C254.624 46.452 254.612 46.504 254.599 46.556C254.327 47.7055 254.104 48.903 253.931 50.1483C253.757 51.3936 253.671 52.5431 253.671 53.5969C253.671 54.2818 253.734 54.8786 253.86 55.3873C253.9 55.5473 253.948 55.7051 254.005 55.86C254.054 55.9954 254.117 56.1254 254.194 56.248C254.285 56.3888 254.389 56.5004 254.506 56.5828C254.673 56.7002 254.875 56.7617 255.082 56.7581C255.419 56.7567 255.746 56.6484 256.013 56.4499C256.163 56.341 256.299 56.2153 256.419 56.0756C256.584 55.8864 256.746 55.6943 256.904 55.4994C257.048 55.3202 257.181 55.1478 257.303 54.9821C257.343 54.9278 257.383 54.8732 257.422 54.8183C257.446 54.7839 257.471 54.7498 257.497 54.7162C257.719 54.4241 257.831 54.3862 257.831 54.6027C257.93 55.3212 257.67 56.1354 257.051 57.0455C256.892 57.2833 256.708 57.5046 256.502 57.7057C256.25 57.9476 255.982 58.1272 255.699 58.2446C255.434 58.355 255.148 58.4115 254.859 58.4105ZM192.983 23.2062H193.28C193.358 23.2059 193.436 23.2088 193.513 23.2148C193.853 23.2421 194.023 23.335 194.023 23.4935C194.023 23.6162 193.851 23.7565 193.507 23.9146C193.445 23.9432 193.381 23.9705 193.317 23.9965C192.94 24.1502 192.364 24.2577 191.589 24.319C191.385 24.3348 191.181 24.347 190.977 24.3557C188.699 24.4515 186.545 24.7269 184.515 25.1819C182.726 25.5797 180.964 26.0816 179.239 26.6849C179.066 26.7456 178.893 26.8074 178.721 26.8703C178.211 28.3706 177.733 29.8806 177.286 31.3994C176.964 32.4948 176.662 33.5956 176.381 34.7015C175.762 37.1442 175.254 39.4193 174.858 41.5268C177.984 40.9322 181.055 40.0951 184.042 39.0237C185.735 38.4122 187.393 37.7128 189.009 36.9287C191.816 35.5736 194.507 34.0056 197.057 32.2393C198.158 31.4728 199.228 30.6644 200.263 29.816C202.128 28.2935 203.889 26.6553 205.534 24.9118C206.586 23.794 207.579 22.6252 208.508 21.41C208.953 20.8492 209.376 20.2718 209.776 19.6793C210.418 18.7208 210.911 17.8249 211.256 16.9915C211.446 16.5379 211.609 16.0745 211.746 15.6034C211.883 15.1283 211.976 14.6774 212.027 14.2506C212.057 14.0038 212.073 13.7555 212.073 13.507C212.073 11.8785 211.491 10.5733 210.328 9.5914C209.657 9.03349 208.905 8.57402 208.096 8.22777C207.435 7.93847 206.709 7.69898 205.918 7.50931C205.865 7.49659 205.812 7.48413 205.759 7.47195C204.414 7.16826 203.046 6.97312 201.667 6.88856C201.002 6.84602 200.335 6.82493 199.668 6.82534C197.39 6.82534 195.137 7.01693 192.909 7.40011C190.68 7.78328 188.699 8.2862 186.966 8.90886C186.646 9.04202 186.367 9.07243 186.131 9.00011C186.112 8.99433 186.093 8.98785 186.075 8.98071C185.121 11.0129 184.198 13.0584 183.306 15.1163C182.922 16.0021 182.545 16.8907 182.175 17.7818C181.011 20.5838 179.984 23.2541 179.092 25.7926C181.147 25.1489 183.232 24.6039 185.342 24.1595C185.487 24.1287 185.632 24.0983 185.778 24.0683C188.105 23.5893 190.507 23.302 192.983 23.2062ZM44.9202 56.3543C45.0823 56.5276 45.2803 56.6659 45.5013 56.7602C45.7223 56.8545 45.9614 56.9028 46.203 56.9018C46.5298 56.898 46.8541 56.8451 47.1642 56.7452C47.7055 56.5775 48.293 56.276 48.9269 55.8406C48.9351 55.8351 48.9432 55.8296 48.9514 55.8241C48.9688 55.8122 48.9861 55.8002 49.0034 55.7882C49.5382 55.4146 50.0698 54.9806 50.5982 54.4863C51.1038 54.011 51.583 53.5103 52.0341 52.9862C53.0493 51.8127 53.9654 50.5794 54.7825 49.2861C55.1975 48.6295 55.5518 47.9912 55.8455 47.3715C56.1167 46.8051 56.3448 46.2204 56.5281 45.622C56.6271 46.3884 56.6767 47.1787 56.6767 47.9929C56.6767 48.5275 56.7727 49.1238 56.9649 49.7819C57.0733 50.1493 57.2002 50.5113 57.3452 50.8667C57.4147 51.0267 57.4875 51.1852 57.5636 51.3424C57.7265 51.6781 57.8951 51.9856 58.0694 52.2649C58.2411 52.5425 58.4335 52.8076 58.6451 53.058C58.9083 53.3741 59.2574 53.6129 59.6531 53.7478C59.9384 53.8413 60.2381 53.8875 60.5393 53.8843C61.3812 53.8843 62.1735 53.525 62.9163 52.8066C63.6591 52.0881 64.0305 51.4176 64.0305 50.7949C64.0305 50.4596 63.882 50.292 63.5848 50.292C63.5398 50.2921 63.4949 50.2975 63.4511 50.3078C63.304 50.3418 63.1488 50.4309 62.9854 50.5751C62.9083 50.644 62.8356 50.7174 62.7677 50.7949C62.7603 50.8089 62.7521 50.8226 62.7432 50.8359C62.6759 50.9384 62.5048 51.1527 62.2299 51.4789C62.1496 51.5745 62.0689 51.6698 61.9878 51.7648C61.5173 52.3156 61.0593 52.591 60.6136 52.591C59.8752 52.591 59.4427 51.8192 59.3159 50.2755C59.2883 49.9224 59.2752 49.5684 59.2765 49.2143C59.2767 48.7989 59.2913 48.3836 59.3203 47.9692C59.385 47.0726 59.5068 46.1808 59.6851 45.2987C59.7679 44.8865 59.8412 44.4726 59.9049 44.0572C59.9644 43.6664 60.0097 43.299 60.0409 42.9551C60.0746 42.5997 60.0922 42.243 60.0936 41.886C60.0967 41.6531 60.07 41.4207 60.0141 41.1942C59.821 40.458 59.278 40.0899 58.3851 40.0899C58.309 40.0897 58.2333 40.0999 58.1601 40.1201C57.908 40.19 57.6827 40.3806 57.4841 40.692C57.4029 40.8213 57.3316 40.9563 57.2709 41.0957C56.4786 42.7242 55.6244 44.5324 54.7082 46.5201C54.3747 47.2454 54.0152 47.9593 53.6304 48.6604C53.0355 49.7493 52.3657 50.7985 51.6255 51.8007C51.5254 51.9399 51.4239 52.0781 51.321 52.2153C50.6574 53.1 50.078 53.7401 49.5828 54.1357C49.2045 54.438 48.8645 54.6398 48.5629 54.7414C48.4255 54.79 48.2806 54.816 48.1343 54.8183C47.9202 54.8241 47.7112 54.7547 47.546 54.6228C47.443 54.5395 47.3544 54.4291 47.2801 54.2916C47.2173 54.1732 47.1675 54.0487 47.1315 53.9202C47.0805 53.7422 47.0386 53.5619 47.006 53.3799C46.9163 52.8866 46.8715 52.3123 46.8715 51.6571C46.8715 50.6033 46.9458 49.5256 47.0944 48.424C47.1875 47.7357 47.29 47.1126 47.4019 46.5546C47.4643 46.242 47.5351 45.931 47.6143 45.622C47.7665 44.9961 47.9116 44.3686 48.0496 43.7397C48.2943 42.6224 48.5207 41.5015 48.7286 40.3773C48.7543 40.239 48.7793 40.1006 48.8036 39.962C49.1002 38.2597 49.2485 36.7218 49.2485 35.3481C49.2486 35.2928 49.2483 35.2374 49.2478 35.1821C49.2389 34.3731 49.1646 33.6772 49.0249 33.0943C48.9558 32.7951 48.8565 32.5032 48.7286 32.2228C48.5092 31.7529 48.2007 31.4318 47.803 31.2593C47.556 31.156 47.2891 31.1049 47.0201 31.1092C46.5576 31.1092 46.1396 31.2886 45.7662 31.6473C45.6094 31.8007 45.4695 31.9695 45.3488 32.1509C45.2528 32.292 45.1633 32.437 45.0806 32.5856C44.7889 33.1125 44.6431 33.6022 44.6431 34.0549C44.643 34.0702 44.6432 34.0855 44.6438 34.1008C44.6488 34.2139 44.6733 34.2704 44.7174 34.2704C44.7181 34.2704 44.7189 34.2704 44.7196 34.2704C44.7731 34.2637 44.9704 34.0481 45.3116 33.6238C45.5592 33.3843 45.8068 33.1328 46.0544 32.8694C46.13 32.7878 46.215 32.7147 46.3077 32.6517C46.472 32.5374 46.6691 32.4753 46.8715 32.4743C46.934 32.4739 46.9964 32.479 47.058 32.4893C47.3462 32.5392 47.5316 32.7137 47.6143 33.0131C47.6385 33.1011 47.6591 33.19 47.676 33.2796C47.7339 33.5847 47.7629 33.9389 47.7629 34.3422C47.763 34.3679 47.763 34.3935 47.7629 34.4191C47.7575 35.1941 47.6698 36.1173 47.5 37.1888C47.4137 37.7267 47.3156 38.2628 47.2058 38.7967C47.1824 38.9107 47.1589 39.0247 47.1352 39.1387C46.7703 40.8994 46.3728 42.6537 45.943 44.4006C45.4726 46.3165 45.0393 48.0528 44.6431 49.6094C44.2469 51.1661 44.0488 52.2797 44.0488 52.9503C44.0474 52.9867 44.0462 53.0231 44.0451 53.0595C44.0204 53.971 44.1001 54.7126 44.2843 55.2845C44.3584 55.5256 44.4666 55.7555 44.6059 55.9678C44.6981 56.1058 44.8033 56.2352 44.9202 56.3543ZM206.879 57.3623C207.683 58.0329 208.708 58.4046 209.771 58.4105C210.401 58.4073 211.026 58.3019 211.621 58.0987C212.241 57.8913 212.867 57.581 213.5 57.1676C214.075 56.7869 214.616 56.3616 215.119 55.8959C215.504 55.5426 215.869 55.1692 216.211 54.7773C217.579 53.2183 218.775 51.2202 219.799 48.7832C219.811 48.7596 219.823 48.7359 219.834 48.7121C219.913 48.5516 219.974 48.3955 220.017 48.2437C220.068 48.0685 220.094 47.8875 220.096 47.7055C220.096 47.4244 220.015 47.2464 219.855 47.1717C219.791 47.1433 219.721 47.1293 219.65 47.1308C219.524 47.1312 219.401 47.1615 219.29 47.2191C218.988 47.3729 218.712 47.7266 218.461 48.2803C217.519 50.1976 216.566 51.7799 215.602 53.0271C215.144 53.6286 214.635 54.1917 214.079 54.7105C213.988 54.794 213.896 54.8764 213.803 54.9576C212.978 55.678 212.199 56.1821 211.467 56.47C211.024 56.653 210.549 56.7508 210.068 56.7581C208.681 56.7581 207.567 56.0037 206.725 54.495C206.408 53.9155 206.161 53.303 205.988 52.6694C205.807 52.0285 205.673 51.3225 205.586 50.5513C205.5 49.7731 205.459 48.991 205.462 48.2085C205.462 47.5379 205.499 46.8554 205.574 46.1609C205.648 45.4663 205.735 44.7359 205.834 43.9696C206.112 42.0498 206.507 40.527 207.018 39.4009C207.207 38.9714 207.445 38.5639 207.728 38.186C207.845 38.033 207.968 37.8837 208.095 37.7384C208.823 36.9112 209.505 36.4976 210.142 36.4976C210.538 36.4976 210.885 36.6772 211.182 37.0364C211.479 37.3957 211.628 37.8866 211.628 38.5093C211.624 38.8957 211.571 39.2802 211.469 39.6538C211.364 40.0518 211.206 40.4683 210.995 40.9032C210.787 41.3285 210.552 41.7407 210.29 42.1375C210.138 42.3714 209.979 42.6014 209.814 42.8272C209.462 43.3095 209.102 43.7394 208.734 44.1168C208.351 44.5157 207.926 44.8756 207.468 45.1909C206.926 45.5186 206.569 45.8237 206.398 46.1063C206.324 46.2196 206.283 46.3502 206.279 46.4842C206.279 46.4906 206.28 46.4971 206.28 46.5036C206.288 46.6343 206.387 46.6997 206.576 46.6997C206.734 46.6997 206.878 46.6863 207.008 46.6595C207.116 46.6378 207.22 46.603 207.319 46.556C207.591 46.4581 207.853 46.3382 208.104 46.1975C208.463 45.9973 208.824 45.7473 209.187 45.4474C209.538 45.155 209.869 44.8414 210.179 44.5084C211.145 43.4786 211.974 42.3291 212.667 41.0598C212.687 41.024 212.706 40.9881 212.725 40.952C213.012 40.4142 213.235 39.8873 213.396 39.3714C213.598 38.7431 213.703 38.0895 213.707 37.4316C213.708 37.3739 213.707 37.3162 213.705 37.2585C213.693 36.858 213.641 36.4899 213.548 36.1542C213.403 35.5886 213.098 35.0733 212.667 34.6655C211.974 34.0189 211.132 33.6956 210.142 33.6956C209.854 33.6965 209.568 33.7295 209.288 33.7941C208.892 33.8836 208.489 34.0345 208.078 34.2467C207.708 34.4414 207.354 34.6656 207.022 34.917C206.716 35.1476 206.431 35.4044 206.172 35.6843C205.79 36.0948 205.433 36.5745 205.101 37.1234C204.787 37.65 204.51 38.1971 204.274 38.7607C204.03 39.3436 203.834 39.9442 203.688 40.5569C203.336 42.0024 203.159 43.7147 203.159 45.6939C203.159 48.663 203.457 51.094 204.053 52.9869C204.303 53.8189 204.664 54.6157 205.128 55.3571C205.283 55.5984 205.448 55.8335 205.623 56.0619C206.021 56.5816 206.44 57.0151 206.879 57.3623ZM264.075 57.3623C264.88 58.0329 265.905 58.4046 266.967 58.4105C267.598 58.4073 268.223 58.3019 268.818 58.0987C269.438 57.8913 270.064 57.581 270.697 57.1676C271.271 56.7869 271.812 56.3616 272.315 55.8959C272.701 55.5426 273.065 55.1692 273.408 54.7773C274.776 53.2183 275.972 51.2202 276.995 48.7832C277.007 48.7596 277.019 48.7359 277.031 48.7121C277.11 48.5516 277.17 48.3955 277.214 48.2437C277.265 48.0685 277.291 47.8875 277.292 47.7055C277.292 47.4244 277.212 47.2464 277.052 47.1717C276.987 47.1433 276.917 47.1293 276.847 47.1308C276.721 47.1312 276.598 47.1615 276.487 47.2191C276.185 47.3729 275.909 47.7266 275.658 48.2803C274.716 50.1976 273.763 51.7799 272.799 53.0271C272.341 53.6286 271.831 54.1917 271.275 54.7105C271.185 54.794 271.093 54.8764 271 54.9576C270.174 55.678 269.396 56.1821 268.664 56.47C268.221 56.653 267.746 56.7508 267.264 56.7581C265.878 56.7581 264.763 56.0037 263.922 54.495C263.605 53.9155 263.358 53.303 263.185 52.6694C263.004 52.0285 262.87 51.3225 262.782 50.5513C262.697 49.7731 262.656 48.991 262.659 48.2085C262.659 47.5379 262.696 46.8554 262.77 46.1609C262.845 45.4663 262.931 44.7359 263.03 43.9696C263.309 42.0498 263.704 40.527 264.215 39.4009C264.404 38.9714 264.642 38.5639 264.924 38.186C265.042 38.033 265.165 37.8837 265.292 37.7384C266.02 36.9112 266.702 36.4976 267.339 36.4976C267.735 36.4976 268.081 36.6772 268.379 37.0364C268.676 37.3957 268.824 37.8866 268.824 38.5093C268.821 38.8957 268.768 39.2802 268.665 39.6538C268.56 40.0518 268.403 40.4683 268.192 40.9032C267.984 41.3285 267.749 41.7407 267.487 42.1375C267.335 42.3714 267.176 42.6014 267.011 42.8272C266.658 43.3095 266.298 43.7394 265.93 44.1168C265.547 44.5157 265.123 44.8756 264.664 45.1909C264.123 45.5186 263.766 45.8237 263.595 46.1063C263.521 46.2196 263.48 46.3502 263.476 46.4842C263.476 46.4906 263.476 46.4971 263.477 46.5036C263.485 46.6343 263.584 46.6997 263.773 46.6997C263.931 46.6997 264.075 46.6863 264.205 46.6595C264.312 46.6378 264.417 46.603 264.516 46.556C264.787 46.4581 265.05 46.3382 265.3 46.1975C265.66 45.9973 266.021 45.7473 266.384 45.4474C266.735 45.155 267.066 44.8414 267.376 44.5084C268.341 43.4786 269.171 42.3291 269.864 41.0598C269.884 41.024 269.903 40.9881 269.922 40.952C270.208 40.4142 270.432 39.8873 270.593 39.3714C270.795 38.7431 270.899 38.0895 270.904 37.4316C270.904 37.3739 270.903 37.3162 270.902 37.2585C270.89 36.858 270.838 36.4899 270.745 36.1542C270.6 35.5886 270.295 35.0733 269.864 34.6655C269.171 34.0189 268.329 33.6956 267.339 33.6956C267.051 33.6965 266.764 33.7295 266.484 33.7941C266.089 33.8836 265.686 34.0345 265.275 34.2467C264.904 34.4414 264.551 34.6656 264.219 34.917C263.912 35.1476 263.628 35.4044 263.369 35.6843C262.986 36.0948 262.629 36.5745 262.298 37.1234C261.983 37.65 261.707 38.1971 261.47 38.7607C261.227 39.3436 261.031 39.9442 260.885 40.5569C260.532 42.0024 260.356 43.7147 260.356 45.6939C260.356 48.663 260.654 51.094 261.25 52.9869C261.5 53.8189 261.861 54.6157 262.325 55.3571C262.48 55.5984 262.645 55.8335 262.819 56.0619C263.218 56.5816 263.637 57.0151 264.075 57.3623ZM282.568 60.5135C282.738 60.5498 282.912 60.5674 283.086 60.5659C283.928 60.5659 284.795 60.1588 285.686 59.3445C285.895 59.1552 286.091 58.9524 286.272 58.7374C286.773 58.1359 287.023 57.5479 287.023 56.9736C287.023 56.9202 287.022 56.8668 287.02 56.8134C287.004 56.3199 286.878 55.8355 286.652 55.393C286.603 55.299 286.552 55.2063 286.498 55.115C286.267 54.7262 285.995 54.3619 285.686 54.028C286.089 53.6089 286.457 53.2319 286.791 52.8971C286.978 52.7097 287.167 52.5239 287.357 52.3396L288.212 51.5134C288.302 51.4456 288.39 51.3739 288.474 51.2985C288.745 51.0538 288.88 50.838 288.88 50.6512C288.88 50.6243 288.877 50.5975 288.87 50.5715C288.853 50.5063 288.812 50.4646 288.746 50.4464C288.717 50.4389 288.687 50.4353 288.657 50.4357C288.629 50.4362 288.601 50.4396 288.574 50.4457C288.416 50.4783 288.171 50.5947 287.84 50.7949C287.576 50.9654 287.298 51.1699 287.007 51.4085C286.796 51.5813 286.591 51.76 286.392 51.9444C285.872 52.4234 285.389 52.9263 284.943 53.4532C284.585 53.0876 284.22 52.7283 283.848 52.3755C283.225 51.7856 282.587 51.2107 281.935 50.6512C280.821 49.6933 279.867 48.5916 279.075 47.3463C278.635 46.6486 278.316 45.8857 278.131 45.0882C277.964 44.3674 277.882 43.6306 277.887 42.8919C277.888 42.2231 277.954 41.556 278.083 40.8989C278.241 40.0957 278.474 39.308 278.778 38.5452C278.852 38.3579 278.929 38.1718 279.009 37.987C279.544 36.7399 280.24 35.5635 281.081 34.4859C281.347 34.1609 281.63 33.8487 281.927 33.5505C282.722 32.7596 283.61 32.0609 284.572 31.4684C284.858 31.2897 285.152 31.1233 285.454 30.9698C285.925 30.7303 286.382 30.545 286.823 30.4137C287.32 30.2604 287.838 30.18 288.36 30.1752C288.606 30.1742 288.85 30.2128 289.082 30.2894C289.361 30.3845 289.62 30.5284 289.846 30.714C290.292 31.0733 290.514 31.4924 290.514 31.9713V32.5102C290.514 32.7736 290.539 33.0251 290.589 33.2646C290.601 33.3264 290.616 33.3877 290.634 33.4485C290.737 33.8048 290.895 33.983 291.109 33.983C291.596 33.983 291.883 33.5479 291.971 32.6776C291.991 32.4667 292.001 32.255 292 32.0432C292 31.9063 291.992 31.7696 291.975 31.6337C291.865 30.7437 291.378 30.0899 290.514 29.6723C289.524 29.1933 288.509 28.9538 287.469 28.9538C285.934 28.9538 284.448 29.3011 283.012 29.9956C281.576 30.6901 280.264 31.6121 279.075 32.7616C278.832 32.997 278.597 33.2413 278.373 33.4937C277.565 34.4096 276.878 35.4185 276.327 36.4976C275.584 37.9345 275.212 39.4433 275.212 41.0239C275.212 42.365 275.534 43.766 276.178 45.2269C276.415 45.7672 276.683 46.294 276.983 46.8046C277.425 47.5653 277.953 48.2769 278.555 48.9269C278.963 49.3604 279.39 49.7767 279.835 50.1749C280.435 50.7136 281.074 51.209 281.749 51.6571C282.19 51.946 282.611 52.2626 283.009 52.6047C283.507 53.0309 283.957 53.5081 284.349 54.028C284.151 54.3153 283.829 54.7105 283.383 55.2134C283.284 55.3254 283.185 55.4375 283.086 55.5496C282.781 55.8959 282.533 56.179 282.343 56.3989C282.238 56.5222 282.138 56.6495 282.043 56.7804C281.55 57.4605 281.303 58.1236 281.303 58.7698C281.303 58.8064 281.305 58.8431 281.307 58.8797C281.33 59.2284 281.465 59.5869 281.712 59.9552C281.905 60.2431 282.19 60.4292 282.568 60.5135ZM138.758 49.9328L139.278 49.7891C139.377 49.7891 139.426 49.837 139.426 49.9328C139.425 49.9799 139.411 50.0258 139.386 50.0664C139.32 50.1833 139.172 50.3183 138.943 50.4716C138.835 50.5446 138.724 50.6143 138.61 50.6807C138.504 50.7429 138.402 50.7973 138.306 50.8438C138.235 50.8782 138.163 50.9098 138.089 50.9386C137.48 51.2301 136.816 51.3978 136.137 51.4315C136.02 51.4382 135.903 51.4415 135.786 51.4415C134.548 51.4415 133.372 51.0703 132.258 50.3279C131.144 49.5855 130.166 48.7353 129.324 47.7774C129.274 48.1606 129.25 48.5318 129.25 48.891V49.9328C129.25 52.6773 129.733 54.7675 130.7 56.2034C130.711 56.2207 130.723 56.238 130.735 56.2552C130.987 56.6273 131.277 56.9743 131.6 57.2912C131.972 57.6499 132.361 57.9222 132.768 58.1081C133.2 58.3078 133.673 58.4112 134.152 58.4105C134.968 58.4001 135.76 58.1451 136.42 57.6806C137.259 57.1207 138.063 56.2384 138.832 55.0338C139.872 53.4532 140.615 51.6451 141.06 49.6094C141.506 47.5738 141.729 45.5262 141.729 43.4666C141.729 41.9339 141.63 40.4491 141.432 39.0122C141.234 37.5753 140.936 36.1863 140.54 34.8452C140.194 33.6477 139.612 32.582 138.795 31.648C138.489 31.2952 138.111 31.0068 137.685 30.8006C137.259 30.5945 136.794 30.4751 136.319 30.4496C136.044 30.4276 135.755 30.4286 135.451 30.4525C135.414 30.4556 135.377 30.4589 135.341 30.4626C134.459 30.5364 133.626 30.8819 132.963 31.4483C132.693 31.6725 132.445 31.9197 132.221 32.1869C131.329 33.2406 130.649 34.4261 130.178 35.7432C130.018 36.1871 129.879 36.6378 129.762 37.0939C129.654 37.5221 129.576 37.9269 129.528 38.3081C129.492 38.5894 129.473 38.8725 129.472 39.1559C129.472 39.3073 129.479 39.4586 129.494 39.6092C129.524 39.912 129.588 40.1613 129.685 40.3572C129.688 40.3639 129.692 40.3706 129.695 40.3773C129.74 40.2655 129.79 40.156 129.845 40.0489C130.04 39.6667 130.361 39.1415 130.809 38.4734C131.404 37.5873 132.072 36.773 132.815 36.0306C133.506 35.3395 134.155 34.9699 134.761 34.922C134.806 34.9186 134.85 34.9169 134.895 34.917C135.383 34.917 135.653 35.0902 135.703 35.4365C135.709 35.4786 135.712 35.5211 135.712 35.5636C135.395 35.5907 135.088 35.6864 134.815 35.8438C134.479 36.0306 134.147 36.3084 133.818 36.6772C133.455 37.0869 133.122 37.5202 132.82 37.974C132.565 38.3574 132.328 38.7518 132.109 39.1559C131.589 40.1138 131.168 41.0598 130.847 41.9938C130.525 42.9278 130.289 43.6582 130.141 44.1851C130.122 44.257 130.102 44.3286 130.081 44.3999C130.059 44.4732 130.034 44.552 130.007 44.6363C129.978 44.7256 129.949 44.8147 129.918 44.9036C129.822 45.1769 129.772 45.4634 129.77 45.7521C129.77 45.7566 129.77 45.7612 129.77 45.7657C129.77 46.0904 129.955 46.6056 130.326 47.3111C130.338 47.3348 130.351 47.3586 130.364 47.3822C130.585 47.7892 130.862 48.1649 131.189 48.4987C131.462 48.7823 131.779 49.0553 132.138 49.3178C132.19 49.3557 132.242 49.393 132.295 49.4298C132.74 49.734 133.236 49.9608 133.761 50.1002C134.187 50.2185 134.654 50.297 135.162 50.3358C135.419 50.3549 135.677 50.3643 135.935 50.3638C136.381 50.3638 136.851 50.3159 137.346 50.2201C137.841 50.1243 138.312 50.0285 138.758 49.9328ZM14.7077 42.7482C17.0143 42.7389 19.2991 42.3162 21.4465 41.5017C21.8165 41.364 22.1826 41.2166 22.5444 41.0598C24.7166 40.1112 26.7757 38.9368 28.6852 37.5573C29.1471 37.2261 29.6011 36.8848 30.0468 36.5335C32.4486 34.6416 34.6646 32.5461 36.695 30.247C38.2327 28.5127 39.6627 26.6915 40.9773 24.7932C41.3298 24.2822 41.6728 23.7651 42.0061 23.2421C43.5165 20.8712 44.6926 18.62 45.5345 16.4886C45.8009 15.8197 46.0364 15.1396 46.2401 14.4503C46.4258 13.8147 46.5652 13.2146 46.6583 12.6499C46.7476 12.1257 46.794 11.5955 46.7972 11.0642C46.7993 10.7268 46.7712 10.3898 46.7133 10.057C46.5984 9.42232 46.3664 8.89593 46.0173 8.47779C45.5355 7.90111 44.8092 7.59145 43.8386 7.54883C43.7602 7.54544 43.6817 7.54376 43.6031 7.5438C42.5976 7.55171 41.6007 7.72468 40.6549 8.05534C39.7383 8.36619 38.8021 8.81834 37.8463 9.41179C35.8408 10.6571 33.798 12.3335 31.7181 14.441C30.112 16.0732 28.5854 17.7768 27.1431 19.5463C26.641 20.1607 26.148 20.782 25.6642 21.41C23.7081 23.9486 21.8759 26.523 20.1674 29.1334C18.4589 31.7438 16.9361 34.2105 15.5991 36.5335C14.262 38.8565 13.2221 40.8083 12.4793 42.389C12.7269 42.5326 13.0983 42.6284 13.5935 42.6763C13.7095 42.6877 13.8257 42.6982 13.9419 42.708C14.1652 42.7262 14.3556 42.7384 14.5131 42.7446C14.5779 42.747 14.6428 42.7482 14.7077 42.7482ZM66.2307 59.0528C66.6527 59.1555 67.0866 59.2052 67.5217 59.2008C68.1554 59.2016 68.7841 59.0916 69.3773 58.8761C69.9661 58.6585 70.5175 58.3562 71.013 57.9795C72.1024 57.1652 73.0681 56.2312 73.9099 55.1775C74.0736 54.9864 74.2294 54.7891 74.3772 54.5862C74.5579 54.3395 74.7431 54.0665 74.9328 53.7672C75.1323 53.4516 75.3237 53.1313 75.507 52.8066C75.6131 52.6193 75.7173 52.4311 75.8197 52.2419C76.2475 51.4535 76.6389 50.647 76.9926 49.825C77.0658 49.6546 77.1357 49.4828 77.2021 49.3099C77.3868 48.828 77.5108 48.4115 77.5742 48.0605C77.6056 47.8959 77.6222 47.7291 77.624 47.5618C77.624 47.1787 77.525 46.9871 77.3269 46.9871C77.3217 46.9872 77.3165 46.9874 77.3113 46.9878C77.0701 47.0031 76.7502 47.37 76.3516 48.0885C76.2514 48.27 76.1555 48.4537 76.0641 48.6395C75.2222 50.3638 74.2566 51.9684 73.1671 53.4532C72.9753 53.7146 72.7792 53.9731 72.5788 54.2284C71.6939 55.3564 70.8253 56.2834 69.973 57.0096C68.9331 57.8956 68.017 58.3387 67.2246 58.3387C67.013 58.341 66.8041 58.2929 66.6163 58.1986C66.4385 58.1086 66.2783 57.9744 66.1357 57.7963C66.023 57.6526 65.9273 57.4971 65.8504 57.3329C65.5285 56.6623 65.3676 55.5846 65.3676 54.0998C65.367 53.6067 65.3812 53.1136 65.4099 52.6212C65.457 51.8314 65.5431 51.0943 65.6684 50.4098C65.7925 49.71 65.9777 49.0217 66.2218 48.3521C66.7913 46.8194 67.5713 45.0712 68.5617 43.1074C69.0074 42.2453 69.5026 41.3232 70.0473 40.3414C70.2203 40.0313 70.37 39.7095 70.4952 39.3786C70.7353 38.7556 70.8603 38.0965 70.8644 37.4316C70.8644 37.2223 70.8431 37.0288 70.8005 36.8511C70.7509 36.6347 70.6592 36.4294 70.5301 36.2462C70.3908 36.046 70.183 35.8998 69.9433 35.833C69.8081 35.7958 69.668 35.7777 69.5273 35.7792C69.0519 35.7792 68.6035 35.9944 68.1821 36.425C68.0208 36.5926 67.8744 36.7731 67.7446 36.9646C67.438 37.4091 67.1318 37.9029 66.8257 38.4461C66.5749 38.892 66.3363 39.3443 66.1104 39.8025C66.0898 39.8544 66.0695 39.9063 66.0495 39.9584C65.8054 40.5945 65.4666 41.5963 65.0333 42.9637C64.8202 43.6385 64.6238 44.3181 64.4443 45.002C64.1939 45.9572 63.9692 46.9186 63.7705 47.8852C63.3991 49.6813 63.2134 51.3936 63.2134 53.0221C63.2114 53.6314 63.2568 54.24 63.3494 54.8427C63.4784 55.7031 63.7327 56.5415 64.1048 57.3329C64.297 57.7594 64.5891 58.1368 64.9581 58.4353C65.3271 58.7338 65.7628 58.9452 66.2307 59.0528ZM99.5831 59.0528C100.005 59.1555 100.439 59.2052 100.874 59.2008C101.508 59.2016 102.136 59.0916 102.73 58.8761C103.318 58.6585 103.87 58.3562 104.365 57.9795C105.455 57.1652 106.42 56.2312 107.262 55.1775C107.426 54.9864 107.582 54.7891 107.729 54.5862C107.91 54.3395 108.095 54.0665 108.285 53.7672C108.485 53.4516 108.676 53.1313 108.859 52.8066C108.965 52.6193 109.07 52.4311 109.172 52.2419C109.6 51.4535 109.991 50.647 110.345 49.825C110.418 49.6546 110.488 49.4828 110.554 49.3099C110.739 48.828 110.863 48.4115 110.927 48.0605C110.958 47.8959 110.975 47.7291 110.976 47.5618C110.976 47.1787 110.877 46.9871 110.679 46.9871C110.674 46.9872 110.669 46.9874 110.664 46.9878C110.422 47.0031 110.103 47.37 109.704 48.0885C109.604 48.27 109.508 48.4537 109.416 48.6395C108.575 50.3638 107.609 51.9684 106.519 53.4532C106.328 53.7146 106.132 53.9731 105.931 54.2284C105.046 55.3564 104.178 56.2834 103.325 57.0096C102.285 57.8956 101.369 58.3387 100.577 58.3387C100.365 58.341 100.156 58.2929 99.9686 58.1986C99.7908 58.1086 99.6306 57.9744 99.488 57.7963C99.3753 57.6526 99.2796 57.4971 99.2027 57.3329C98.8809 56.6623 98.7199 55.5846 98.7199 54.0998C98.7194 53.6067 98.7335 53.1136 98.7623 52.6212C98.8093 51.8314 98.8955 51.0943 99.0207 50.4098C99.1449 49.71 99.33 49.0217 99.5742 48.3521C100.144 46.8194 100.924 45.0712 101.914 43.1074C102.36 42.2453 102.855 41.3232 103.4 40.3414C103.573 40.0313 103.722 39.7095 103.848 39.3786C104.088 38.7556 104.213 38.0965 104.217 37.4316C104.217 37.2223 104.195 37.0288 104.153 36.8511C104.103 36.6347 104.012 36.4294 103.882 36.2462C103.743 36.046 103.535 35.8998 103.296 35.833C103.16 35.7958 103.02 35.7777 102.88 35.7792C102.404 35.7792 101.956 35.9944 101.534 36.425C101.373 36.5926 101.227 36.7731 101.097 36.9646C100.79 37.4091 100.484 37.9029 100.178 38.4461C99.9272 38.892 99.6886 39.3443 99.4627 39.8025C99.4421 39.8544 99.4218 39.9063 99.4018 39.9584C99.1577 40.5945 98.8189 41.5963 98.3856 42.9637C98.1725 43.6385 97.9761 44.3181 97.7966 45.002C97.5462 45.9572 97.3215 46.9186 97.1229 47.8852C96.7515 49.6813 96.5658 51.3936 96.5658 53.0221C96.5637 53.6314 96.6091 54.24 96.7017 54.8427C96.8307 55.7031 97.085 56.5415 97.4571 57.3329C97.6493 57.7594 97.9415 58.1368 98.3104 58.4353C98.6794 58.7338 99.1151 58.9452 99.5831 59.0528ZM131.975 59.7634C132.563 59.9199 133.171 59.9965 133.781 59.9911C135.118 59.9911 136.306 59.584 137.346 58.7698C137.746 58.4559 138.125 58.1176 138.48 57.7567C139.096 57.1281 139.649 56.445 140.132 55.7163C140.499 55.1687 140.847 54.6089 141.175 54.038C141.513 53.4504 141.821 52.8477 142.1 52.2318C142.187 52.0397 142.271 51.8464 142.353 51.652C142.937 50.2474 143.387 48.7941 143.697 47.3104C144.069 45.5621 144.254 43.8019 144.254 42.0297C144.254 40.7365 144.143 39.4553 143.92 38.186C143.919 38.181 143.918 38.1759 143.917 38.1709C143.706 36.9446 143.32 35.7528 142.769 34.6296C142.608 34.2943 142.438 33.9635 142.258 33.6374C141.875 32.9415 141.469 32.3155 141.04 31.7594C140.59 31.1663 140.074 30.6229 139.5 30.1393C139.453 30.1003 139.406 30.0617 139.358 30.0236C138.166 29.0709 136.951 28.5946 135.712 28.5946C135.666 28.5946 135.619 28.5951 135.573 28.596C134.227 28.5936 132.933 29.0952 131.961 29.9956C131.42 30.4968 130.94 31.0552 130.529 31.6602C130.105 32.2825 129.74 32.9396 129.435 33.6238C128.767 35.1086 128.284 36.6652 127.987 38.2938C127.861 38.9796 127.759 39.6695 127.682 40.3622C127.59 41.1785 127.543 41.9989 127.541 42.82C127.541 42.8677 127.541 42.9153 127.542 42.963C127.544 43.2868 127.556 43.6105 127.578 43.9336C127.581 43.9784 127.584 44.0232 127.588 44.068C127.611 44.3715 127.645 44.6741 127.69 44.9754C127.492 45.5502 127.293 46.2926 127.095 47.2026C127.055 47.3886 127.019 47.5755 126.987 47.763C126.859 48.5279 126.796 49.3016 126.798 50.0764C126.798 50.1303 126.799 50.1842 126.799 50.2381C126.806 51.804 127.056 53.3601 127.541 54.8542C127.69 55.3103 127.87 55.7561 128.082 56.1884C128.507 57.0699 129.091 57.8711 129.807 58.5542C130.412 59.1278 131.158 59.5438 131.975 59.7634ZM169.733 42.1016C170.089 42.1014 170.445 42.0923 170.801 42.0743C170.854 42.0716 170.906 42.0687 170.959 42.0656C171.337 42.0438 171.715 42.0137 172.092 41.9751C172.148 41.9695 172.203 41.9638 172.258 41.9579C172.457 39.8983 172.754 37.7549 173.15 35.5277C173.459 33.7991 173.826 32.0807 174.25 30.3749C174.397 29.78 174.55 29.1866 174.71 28.5946C173.444 29.2205 172.22 29.9206 171.042 30.691C169.821 31.4967 168.738 32.3413 167.795 33.225C167.569 33.4366 167.348 33.6534 167.133 33.8752C165.535 35.5219 164.616 37.0048 164.375 38.3239C164.333 38.5511 164.311 38.7814 164.31 39.0122C164.307 39.3773 164.387 39.7386 164.546 40.07C164.704 40.4014 164.937 40.6945 165.227 40.9283C165.36 41.0412 165.5 41.1451 165.647 41.2394C165.993 41.4558 166.368 41.6239 166.762 41.7388C167.475 41.9567 168.349 42.0764 169.384 42.098C169.5 42.1004 169.617 42.1016 169.733 42.1016ZM72.4243 28.5227H72.6472C73.181 28.5227 73.565 28.6291 73.7993 28.8417C73.8255 28.8655 73.85 28.891 73.8728 28.9179C74.0535 29.133 74.1653 29.3944 74.1944 29.6701C74.203 29.7424 74.2072 29.8151 74.2071 29.8878C74.2034 30.2213 74.1409 30.5518 74.0221 30.8649C73.8636 31.2989 73.6034 31.7515 73.2414 32.2228C72.664 32.9743 72.0866 33.3888 71.5092 33.4664C71.4432 33.4754 71.3767 33.48 71.3101 33.4801C71.1599 33.4829 71.011 33.4516 70.8755 33.3888C70.73 33.3184 70.6084 33.208 70.5108 33.0576C70.4586 32.9755 70.4153 32.8883 70.3816 32.7976C70.3426 32.6958 70.3057 32.5932 70.2709 32.4901C70.1748 32.2036 70.1251 31.9879 70.1216 31.8427C70.1215 31.8377 70.1215 31.8327 70.1216 31.8276C70.124 31.137 70.3174 30.4595 70.6817 29.8655C70.728 29.7878 70.7765 29.7114 70.8273 29.6363C71.2977 28.9418 71.8301 28.5706 72.4243 28.5227ZM105.777 28.5227H105.999C106.533 28.5227 106.917 28.6291 107.152 28.8417C107.178 28.8655 107.202 28.891 107.225 28.9179C107.406 29.133 107.518 29.3944 107.547 29.6701C107.555 29.7424 107.56 29.8151 107.559 29.8878C107.556 30.2213 107.493 30.5518 107.374 30.8649C107.216 31.2989 106.956 31.7515 106.594 32.2228C106.016 32.9743 105.439 33.3888 104.861 33.4664C104.796 33.4754 104.729 33.48 104.662 33.4801C104.512 33.4829 104.363 33.4516 104.228 33.3888C104.082 33.3184 103.961 33.208 103.863 33.0576C103.811 32.9755 103.768 32.8883 103.734 32.7976C103.695 32.6958 103.658 32.5932 103.623 32.4901C103.527 32.2036 103.477 31.9879 103.474 31.8427C103.474 31.8377 103.474 31.8327 103.474 31.8276C103.476 31.137 103.67 30.4595 104.034 29.8655C104.08 29.7878 104.129 29.7114 104.18 29.6363C104.65 28.9418 105.182 28.5706 105.777 28.5227ZM283.903 58.6261C284.042 58.6233 284.176 58.5791 284.288 58.4996C284.448 58.3938 284.604 58.2211 284.758 57.9816C284.81 57.8989 284.86 57.8143 284.906 57.728C285.055 57.4538 285.174 57.1651 285.26 56.8666C285.345 56.5739 285.388 56.2716 285.389 55.9678C285.39 55.7969 285.371 55.6265 285.332 55.4598C285.309 55.3636 285.278 55.2692 285.24 55.1775C285.223 55.1359 285.206 55.0944 285.188 55.0532C285.131 54.9258 285.085 54.836 285.048 54.7838C285.039 54.7704 285.029 54.7579 285.018 54.7464C284.621 55.2254 284.262 55.7403 283.94 56.2911C283.839 56.4637 283.749 56.6425 283.671 56.8263C283.529 57.165 283.458 57.4775 283.458 57.7639C283.458 58.3387 283.606 58.6261 283.903 58.6261Z" fill="black" stroke="black" stroke-width="0.944882" stroke-linecap="round"/>
</g>
<defs>
<clipPath id="clip0_27_5">
<rect width="292" height="86" fill="white"/>
</clipPath>
</defs>
</svg>
