<svg width="30" height="29" viewBox="0 0 30 29" fill="none" xmlns="http://www.w3.org/2000/svg">
<path d="M26.25 9.66667V8.45833L22.5 10.875L18.75 8.45833V9.66667L22.5 12.0833M27.5 3.625H2.5C1.83696 3.625 1.20107 3.87961 0.732233 4.33283C0.263392 4.78604 0 5.40073 0 6.04167L0 22.9583C0 23.5993 0.263392 24.214 0.732233 24.6672C1.20107 25.1204 1.83696 25.375 2.5 25.375H27.5C28.163 25.375 28.7989 25.1204 29.2678 24.6672C29.7366 24.214 30 23.5993 30 22.9583V6.04167C30 5.40073 29.7366 4.78604 29.2678 4.33283C28.7989 3.87961 28.163 3.625 27.5 3.625ZM10 7.25C10.9946 7.25 11.9484 7.63192 12.6517 8.31174C13.3549 8.99156 13.75 9.91359 13.75 10.875C13.75 11.8364 13.3549 12.7584 12.6517 13.4383C11.9484 14.1181 10.9946 14.5 10 14.5C9.00544 14.5 8.05161 14.1181 7.34835 13.4383C6.64509 12.7584 6.25 11.8364 6.25 10.875C6.25 9.91359 6.64509 8.99156 7.34835 8.31174C8.05161 7.63192 9.00544 7.25 10 7.25ZM17.5 21.75H2.5V20.5417C2.5 18.125 7.5 16.7958 10 16.7958C12.5 16.7958 17.5 18.125 17.5 20.5417M27.5 14.5H17.5V7.25H27.5" fill="white"/>
</svg>
